%TF.GenerationSoftware,KiCad,Pcbnew,10.0.3*%
%TF.CreationDate,2026-07-02T18:43:42+08:00*%
%TF.ProjectId,FalloutPCBs,46616c6c-6f75-4745-9043-42732e6b6963,rev?*%
%TF.SameCoordinates,Original*%
%TF.FileFunction,Legend,Bot*%
%TF.FilePolarity,Positive*%
%FSLAX46Y46*%
G04 Gerber Fmt 4.6, Leading zero omitted, Abs format (unit mm)*
G04 Created by KiCad (PCBNEW 10.0.3) date 2026-07-02 18:43:42*
%MOMM*%
%LPD*%
G01*
G04 APERTURE LIST*
%ADD10C,0.300000*%
%ADD11C,0.150000*%
%ADD12C,0.000000*%
%ADD13C,0.808000*%
G04 APERTURE END LIST*
D10*
G36*
X187886724Y-122785000D02*
G01*
X187964004Y-122774980D01*
X188034119Y-122745212D01*
X188099307Y-122694050D01*
X188150534Y-122628974D01*
X188180325Y-122559012D01*
X188190348Y-122481925D01*
X188190348Y-121681236D01*
X188180325Y-121604149D01*
X188150534Y-121534186D01*
X188099307Y-121469111D01*
X188034119Y-121417949D01*
X187964004Y-121388180D01*
X187886724Y-121378161D01*
X187485830Y-121378161D01*
X187408475Y-121388159D01*
X187338361Y-121417848D01*
X187273247Y-121468836D01*
X187221959Y-121533743D01*
X187192144Y-121603521D01*
X187182114Y-121680411D01*
X187189712Y-121718694D01*
X187212980Y-121752402D01*
X187246694Y-121775593D01*
X187285062Y-121783176D01*
X187323438Y-121775613D01*
X187357144Y-121752493D01*
X187380416Y-121718963D01*
X187388011Y-121680869D01*
X187395209Y-121645081D01*
X187417320Y-121613458D01*
X187449206Y-121591649D01*
X187485464Y-121584515D01*
X187886999Y-121584515D01*
X187923179Y-121591681D01*
X187955143Y-121613641D01*
X187977246Y-121645454D01*
X187984452Y-121681510D01*
X187984452Y-122481650D01*
X187977241Y-122517785D01*
X187955143Y-122549610D01*
X187923186Y-122571499D01*
X187886999Y-122578645D01*
X187485464Y-122578645D01*
X187449227Y-122571453D01*
X187417320Y-122549427D01*
X187395224Y-122517424D01*
X187388011Y-122481100D01*
X187388011Y-122182422D01*
X187485464Y-122182422D01*
X187523912Y-122174798D01*
X187557729Y-122151464D01*
X187581063Y-122117647D01*
X187588687Y-122079199D01*
X187581080Y-122040759D01*
X187557821Y-122007025D01*
X187524017Y-121983686D01*
X187485647Y-121976067D01*
X187285245Y-121976067D01*
X187246812Y-121983694D01*
X187213072Y-122007025D01*
X187189742Y-122040854D01*
X187182114Y-122079382D01*
X187182114Y-122480917D01*
X187192153Y-122558309D01*
X187221982Y-122628514D01*
X187273247Y-122693775D01*
X187338399Y-122745095D01*
X187408510Y-122774950D01*
X187485830Y-122785000D01*
X187886724Y-122785000D01*
G37*
G36*
X186593000Y-121983120D02*
G01*
X186689720Y-121983120D01*
X186727838Y-121975511D01*
X186761528Y-121952162D01*
X186784722Y-121918372D01*
X186792302Y-121879988D01*
X186784698Y-121841532D01*
X186761436Y-121807723D01*
X186727734Y-121784378D01*
X186689537Y-121776765D01*
X186489869Y-121776765D01*
X186451609Y-121784386D01*
X186417970Y-121807723D01*
X186394703Y-121841520D01*
X186387103Y-121879897D01*
X186387103Y-122578645D01*
X186290750Y-122578645D01*
X186252679Y-122586262D01*
X186219217Y-122609603D01*
X186196099Y-122643398D01*
X186188534Y-122681868D01*
X186196114Y-122720252D01*
X186219309Y-122754042D01*
X186252935Y-122777383D01*
X186291116Y-122785000D01*
X186689720Y-122785000D01*
X186727838Y-122777391D01*
X186761528Y-122754042D01*
X186784722Y-122720252D01*
X186792302Y-122681868D01*
X186784718Y-122643405D01*
X186761528Y-122609603D01*
X186727838Y-122586254D01*
X186689720Y-122578645D01*
X186593000Y-122578645D01*
X186593000Y-121983120D01*
G37*
G36*
X186490052Y-121584515D02*
G01*
X186528406Y-121576893D01*
X186562134Y-121553558D01*
X186585401Y-121519761D01*
X186593000Y-121481384D01*
X186585396Y-121442928D01*
X186562134Y-121409118D01*
X186528406Y-121385783D01*
X186490052Y-121378161D01*
X186451698Y-121385783D01*
X186417970Y-121409118D01*
X186394708Y-121442928D01*
X186387103Y-121481384D01*
X186394703Y-121519761D01*
X186417970Y-121553558D01*
X186451698Y-121576893D01*
X186490052Y-121584515D01*
G37*
G36*
X185490976Y-121983120D02*
G01*
X185529095Y-121975511D01*
X185562784Y-121952162D01*
X185585978Y-121918372D01*
X185593558Y-121879988D01*
X185585974Y-121841525D01*
X185562784Y-121807723D01*
X185529095Y-121784374D01*
X185490976Y-121776765D01*
X185394256Y-121776765D01*
X185394256Y-121480743D01*
X185386660Y-121442555D01*
X185363390Y-121408935D01*
X185329676Y-121385744D01*
X185291308Y-121378161D01*
X185252940Y-121385744D01*
X185219226Y-121408935D01*
X185195956Y-121442555D01*
X185188360Y-121480743D01*
X185188360Y-121776765D01*
X184892887Y-121776765D01*
X184854800Y-121784380D01*
X184821263Y-121807723D01*
X184798072Y-121841525D01*
X184790488Y-121879988D01*
X184798068Y-121918372D01*
X184821263Y-121952162D01*
X184854800Y-121975505D01*
X184892887Y-121983120D01*
X185188360Y-121983120D01*
X185188360Y-122481375D01*
X185181226Y-122517632D01*
X185159417Y-122549519D01*
X185127733Y-122571488D01*
X185091914Y-122578645D01*
X184892887Y-122578645D01*
X184854800Y-122586260D01*
X184821263Y-122609603D01*
X184798072Y-122643405D01*
X184790488Y-122681868D01*
X184798068Y-122720252D01*
X184821263Y-122754042D01*
X184854889Y-122777383D01*
X184893070Y-122785000D01*
X185092372Y-122785000D01*
X185169205Y-122774979D01*
X185238923Y-122745193D01*
X185303764Y-122693958D01*
X185354650Y-122628802D01*
X185384280Y-122558685D01*
X185394256Y-122481375D01*
X185394256Y-121983120D01*
X185490976Y-121983120D01*
G37*
G36*
X184594117Y-121481201D02*
G01*
X184586514Y-121442839D01*
X184563251Y-121409118D01*
X184529523Y-121385783D01*
X184491168Y-121378161D01*
X184452800Y-121385744D01*
X184419086Y-121408935D01*
X184395817Y-121442555D01*
X184388220Y-121480743D01*
X184388220Y-121776765D01*
X183889690Y-121776765D01*
X183812361Y-121786804D01*
X183742218Y-121816631D01*
X183677015Y-121867898D01*
X183625746Y-121933042D01*
X183595920Y-122003124D01*
X183585882Y-122080389D01*
X183585882Y-122681868D01*
X183593482Y-122720245D01*
X183616748Y-122754042D01*
X183650476Y-122777377D01*
X183688831Y-122785000D01*
X183727185Y-122777377D01*
X183760913Y-122754042D01*
X183784179Y-122720245D01*
X183791779Y-122681868D01*
X183791779Y-122080389D01*
X183798994Y-122044176D01*
X183821088Y-122012337D01*
X183852995Y-121990312D01*
X183889232Y-121983120D01*
X184388220Y-121983120D01*
X184388220Y-122681868D01*
X184395820Y-122720245D01*
X184419086Y-122754042D01*
X184452814Y-122777377D01*
X184491168Y-122785000D01*
X184529530Y-122777397D01*
X184563251Y-122754133D01*
X184586521Y-122720349D01*
X184594117Y-122682051D01*
X184594117Y-121481201D01*
G37*
G36*
X182593035Y-122578645D02*
G01*
X182593035Y-121879897D01*
X182585435Y-121841520D01*
X182562169Y-121807723D01*
X182528441Y-121784387D01*
X182490087Y-121776765D01*
X182451732Y-121784387D01*
X182418005Y-121807723D01*
X182394738Y-121841520D01*
X182387138Y-121879897D01*
X182387138Y-122681868D01*
X182394758Y-122720238D01*
X182418096Y-122754042D01*
X182451913Y-122777376D01*
X182490362Y-122785000D01*
X183091748Y-122785000D01*
X183169023Y-122774972D01*
X183239137Y-122745175D01*
X183304331Y-122693958D01*
X183355549Y-122628763D01*
X183385345Y-122558649D01*
X183395373Y-122481375D01*
X183395373Y-121879897D01*
X183387773Y-121841520D01*
X183364507Y-121807723D01*
X183330779Y-121784387D01*
X183292424Y-121776765D01*
X183254070Y-121784387D01*
X183220342Y-121807723D01*
X183197076Y-121841520D01*
X183189476Y-121879897D01*
X183189476Y-122481375D01*
X183182264Y-122517605D01*
X183160167Y-122549519D01*
X183128204Y-122571479D01*
X183092023Y-122578645D01*
X182593035Y-122578645D01*
G37*
G36*
X182132035Y-121385783D02*
G01*
X182165763Y-121409118D01*
X182189026Y-121442839D01*
X182196629Y-121481201D01*
X182196629Y-122682051D01*
X182189014Y-122720342D01*
X182165671Y-122754133D01*
X182131862Y-122777395D01*
X182093406Y-122785000D01*
X181492110Y-122785000D01*
X181414779Y-122774967D01*
X181344667Y-122745167D01*
X181279528Y-122693958D01*
X181228255Y-122628757D01*
X181198431Y-122558643D01*
X181188394Y-122481375D01*
X181188394Y-122080389D01*
X181394291Y-122080389D01*
X181394291Y-122481375D01*
X181401503Y-122517605D01*
X181423600Y-122549519D01*
X181455501Y-122571472D01*
X181491744Y-122578645D01*
X181990732Y-122578645D01*
X181990732Y-121983120D01*
X181491744Y-121983120D01*
X181455508Y-121990312D01*
X181423600Y-122012337D01*
X181401506Y-122044176D01*
X181394291Y-122080389D01*
X181188394Y-122080389D01*
X181198433Y-122003124D01*
X181228258Y-121933042D01*
X181279528Y-121867898D01*
X181344730Y-121816631D01*
X181414873Y-121786804D01*
X181492202Y-121776765D01*
X181990732Y-121776765D01*
X181990732Y-121480743D01*
X181998329Y-121442555D01*
X182021598Y-121408935D01*
X182055312Y-121385744D01*
X182093681Y-121378161D01*
X182132035Y-121385783D01*
G37*
G36*
X180696001Y-121577463D02*
G01*
X180496699Y-121577463D01*
X180458504Y-121585040D01*
X180424891Y-121608237D01*
X180401689Y-121641837D01*
X180394117Y-121679953D01*
X180394117Y-121879255D01*
X180401698Y-121917529D01*
X180424891Y-121951154D01*
X180458504Y-121974352D01*
X180496699Y-121981929D01*
X180696001Y-121981929D01*
X180734133Y-121974359D01*
X180767808Y-121951154D01*
X180791001Y-121917529D01*
X180798583Y-121879255D01*
X180798583Y-121679953D01*
X180791010Y-121641837D01*
X180767808Y-121608237D01*
X180734133Y-121585033D01*
X180696001Y-121577463D01*
G37*
G36*
X180696001Y-122380533D02*
G01*
X180496699Y-122380533D01*
X180458504Y-122388110D01*
X180424891Y-122411308D01*
X180401694Y-122444920D01*
X180394117Y-122483115D01*
X180394117Y-122682418D01*
X180401694Y-122720613D01*
X180424891Y-122754225D01*
X180458504Y-122777422D01*
X180496699Y-122785000D01*
X180696001Y-122785000D01*
X180734133Y-122777430D01*
X180767808Y-122754225D01*
X180791006Y-122720613D01*
X180798583Y-122682418D01*
X180798583Y-122483115D01*
X180791006Y-122444920D01*
X180767808Y-122411308D01*
X180734133Y-122388103D01*
X180696001Y-122380533D01*
G37*
G36*
X188954804Y-138225980D02*
G01*
X189024919Y-138255749D01*
X189090107Y-138306911D01*
X189141334Y-138371986D01*
X189171125Y-138441949D01*
X189181148Y-138519036D01*
X189181148Y-139319725D01*
X189171125Y-139396812D01*
X189141334Y-139466774D01*
X189090107Y-139531850D01*
X189024919Y-139583012D01*
X188954804Y-139612780D01*
X188877524Y-139622800D01*
X188476630Y-139622800D01*
X188399293Y-139612776D01*
X188329180Y-139583003D01*
X188264047Y-139531850D01*
X188212765Y-139466767D01*
X188182946Y-139396806D01*
X188172914Y-139319725D01*
X188172914Y-138519310D01*
X188378811Y-138519310D01*
X188378811Y-139319450D01*
X188386021Y-139355585D01*
X188408120Y-139387410D01*
X188440013Y-139409292D01*
X188476264Y-139416445D01*
X188877799Y-139416445D01*
X188913986Y-139409299D01*
X188945943Y-139387410D01*
X188968041Y-139355585D01*
X188975252Y-139319450D01*
X188975252Y-138519310D01*
X188968046Y-138483254D01*
X188945943Y-138451441D01*
X188913979Y-138429481D01*
X188877799Y-138422315D01*
X188476264Y-138422315D01*
X188440020Y-138429488D01*
X188408120Y-138451441D01*
X188386017Y-138483254D01*
X188378811Y-138519310D01*
X188172914Y-138519310D01*
X188172914Y-138519036D01*
X188182946Y-138441955D01*
X188212765Y-138371993D01*
X188264047Y-138306911D01*
X188329180Y-138255757D01*
X188399293Y-138225984D01*
X188476630Y-138215961D01*
X188877524Y-138215961D01*
X188954804Y-138225980D01*
G37*
G36*
X187678597Y-139219524D02*
G01*
X187755955Y-139209528D01*
X187826101Y-139179840D01*
X187891271Y-139128849D01*
X187942558Y-139063884D01*
X187972374Y-138994044D01*
X187982405Y-138917090D01*
X187972382Y-138840130D01*
X187942594Y-138770291D01*
X187891363Y-138705332D01*
X187826188Y-138654280D01*
X187756072Y-138624567D01*
X187678780Y-138614565D01*
X187077393Y-138614565D01*
X187038944Y-138622189D01*
X187005128Y-138645523D01*
X186981794Y-138679339D01*
X186974170Y-138717788D01*
X186981789Y-138756158D01*
X187005128Y-138789962D01*
X187038944Y-138813296D01*
X187077393Y-138820920D01*
X187679146Y-138820920D01*
X187715348Y-138828026D01*
X187747290Y-138849771D01*
X187769323Y-138881235D01*
X187776508Y-138916999D01*
X187769326Y-138952779D01*
X187747290Y-138984318D01*
X187715348Y-139006063D01*
X187679146Y-139013169D01*
X187277978Y-139013169D01*
X187200667Y-139023234D01*
X187130525Y-139053144D01*
X187065303Y-139104577D01*
X187014052Y-139169959D01*
X186984216Y-139240345D01*
X186974170Y-139317984D01*
X186984212Y-139395567D01*
X187014044Y-139465955D01*
X187065303Y-139531392D01*
X187130468Y-139582822D01*
X187200578Y-139612733D01*
X187277886Y-139622800D01*
X187879181Y-139622800D01*
X187917630Y-139615176D01*
X187951447Y-139591842D01*
X187974785Y-139558038D01*
X187982405Y-139519668D01*
X187974781Y-139481219D01*
X187951447Y-139447403D01*
X187917630Y-139424069D01*
X187879181Y-139416445D01*
X187277428Y-139416445D01*
X187241213Y-139409194D01*
X187209284Y-139386953D01*
X187187272Y-139354753D01*
X187180067Y-139318076D01*
X187187269Y-139281383D01*
X187209284Y-139249108D01*
X187241772Y-139226978D01*
X187281366Y-139219524D01*
X187678597Y-139219524D01*
G37*
G36*
X185881305Y-139622800D02*
G01*
X185919667Y-139615197D01*
X185953388Y-139591933D01*
X186281375Y-139263121D01*
X186378462Y-139360483D01*
X186378462Y-139519668D01*
X186386061Y-139558045D01*
X186409328Y-139591842D01*
X186443056Y-139615177D01*
X186481410Y-139622800D01*
X186519708Y-139615204D01*
X186553492Y-139591933D01*
X186576763Y-139558149D01*
X186584358Y-139519851D01*
X186584358Y-138319001D01*
X186576756Y-138280639D01*
X186553492Y-138246918D01*
X186519701Y-138223576D01*
X186481410Y-138215961D01*
X186443049Y-138223563D01*
X186409328Y-138246827D01*
X186386064Y-138280548D01*
X186378462Y-138318909D01*
X186378462Y-139067483D01*
X185953388Y-138645431D01*
X185919667Y-138622168D01*
X185881305Y-138614565D01*
X185842951Y-138622187D01*
X185809223Y-138645523D01*
X185785961Y-138679332D01*
X185778357Y-138717788D01*
X185785957Y-138756165D01*
X185809223Y-138789962D01*
X186137211Y-139114652D01*
X185809223Y-139447403D01*
X185785961Y-139481212D01*
X185778357Y-139519668D01*
X185785957Y-139558045D01*
X185809223Y-139591842D01*
X185842951Y-139615177D01*
X185881305Y-139622800D01*
G37*
G36*
X185320044Y-138622181D02*
G01*
X185353924Y-138645523D01*
X185377258Y-138679339D01*
X185384882Y-138717788D01*
X185377243Y-138756151D01*
X185353832Y-138789962D01*
X185319953Y-138813303D01*
X185281567Y-138820920D01*
X184880032Y-138820920D01*
X184843768Y-138828034D01*
X184811888Y-138849771D01*
X184789783Y-138881242D01*
X184782579Y-138916999D01*
X184782579Y-139013169D01*
X185281109Y-139013169D01*
X185358420Y-139023234D01*
X185428562Y-139053144D01*
X185493784Y-139104577D01*
X185545035Y-139169959D01*
X185574871Y-139240345D01*
X185584917Y-139317984D01*
X185574884Y-139395573D01*
X185545079Y-139465961D01*
X185493875Y-139531392D01*
X185428655Y-139582830D01*
X185358543Y-139612738D01*
X185281292Y-139622800D01*
X184679905Y-139622800D01*
X184641457Y-139615176D01*
X184607640Y-139591842D01*
X184584302Y-139558038D01*
X184576682Y-139519668D01*
X184576682Y-139416445D01*
X184782579Y-139416445D01*
X185281567Y-139416445D01*
X185317720Y-139409201D01*
X185349711Y-139386953D01*
X185371795Y-139354746D01*
X185379020Y-139318076D01*
X185371798Y-139281390D01*
X185349711Y-139249108D01*
X185317713Y-139226787D01*
X185281567Y-139219524D01*
X184782579Y-139219524D01*
X184782579Y-139416445D01*
X184576682Y-139416445D01*
X184576682Y-138918189D01*
X184586720Y-138840924D01*
X184616546Y-138770842D01*
X184667815Y-138705698D01*
X184733018Y-138654431D01*
X184803161Y-138624604D01*
X184880490Y-138614565D01*
X185281659Y-138614565D01*
X185320044Y-138622181D01*
G37*
G36*
X183980974Y-138820920D02*
G01*
X183980974Y-139519668D01*
X183988574Y-139558045D01*
X184011840Y-139591842D01*
X184045568Y-139615177D01*
X184083922Y-139622800D01*
X184122214Y-139615185D01*
X184156004Y-139591842D01*
X184179271Y-139558045D01*
X184186871Y-139519668D01*
X184186871Y-138717697D01*
X184179291Y-138679313D01*
X184156096Y-138645523D01*
X184122394Y-138622178D01*
X184084197Y-138614565D01*
X183685226Y-138614565D01*
X183608339Y-138624597D01*
X183538593Y-138654413D01*
X183473743Y-138705698D01*
X183422750Y-138770810D01*
X183393063Y-138840895D01*
X183383067Y-138918189D01*
X183390672Y-138956645D01*
X183413934Y-138990455D01*
X183447662Y-139013790D01*
X183486016Y-139021413D01*
X183524370Y-139013790D01*
X183558098Y-138990455D01*
X183581360Y-138956645D01*
X183588964Y-138918189D01*
X183596120Y-138881955D01*
X183617999Y-138850137D01*
X183649627Y-138828103D01*
X183685501Y-138820920D01*
X183980974Y-138820920D01*
G37*
G36*
X182885545Y-139212472D02*
G01*
X182686243Y-139212472D01*
X182648076Y-139220127D01*
X182614435Y-139243612D01*
X182591247Y-139277504D01*
X182583661Y-139316061D01*
X182583661Y-139517378D01*
X182591239Y-139555872D01*
X182614435Y-139589827D01*
X182813646Y-139791052D01*
X182847355Y-139814469D01*
X182885545Y-139822102D01*
X182923656Y-139814473D01*
X182957352Y-139791052D01*
X182980536Y-139757148D01*
X182988127Y-139718512D01*
X182988127Y-139316061D01*
X182980541Y-139277504D01*
X182957352Y-139243612D01*
X182923649Y-139220119D01*
X182885545Y-139212472D01*
G37*
G36*
X180488057Y-138621984D02*
G01*
X180526182Y-138614395D01*
X180559864Y-138591118D01*
X180583063Y-138557341D01*
X180590639Y-138519036D01*
X180583059Y-138480652D01*
X180559864Y-138446862D01*
X180360196Y-138246827D01*
X180326488Y-138223559D01*
X180288205Y-138215961D01*
X180249945Y-138223581D01*
X180216306Y-138246918D01*
X180193043Y-138280639D01*
X180185440Y-138319001D01*
X180185440Y-139416445D01*
X180089086Y-139416445D01*
X180051015Y-139424062D01*
X180017554Y-139447403D01*
X179994436Y-139481198D01*
X179986871Y-139519668D01*
X179994451Y-139558052D01*
X180017645Y-139591842D01*
X180051272Y-139615183D01*
X180089453Y-139622800D01*
X180488057Y-139622800D01*
X180526175Y-139615191D01*
X180559864Y-139591842D01*
X180583059Y-139558052D01*
X180590639Y-139519668D01*
X180583055Y-139481205D01*
X180559864Y-139447403D01*
X180526175Y-139424054D01*
X180488057Y-139416445D01*
X180391337Y-139416445D01*
X180391337Y-138562816D01*
X180416158Y-138591118D01*
X180449853Y-138614390D01*
X180488057Y-138621984D01*
G37*
G36*
X179485318Y-139622800D02*
G01*
X179523679Y-139615197D01*
X179557400Y-139591933D01*
X179580671Y-139558149D01*
X179588266Y-139519851D01*
X179580683Y-139481483D01*
X179557492Y-139447769D01*
X178788127Y-138674282D01*
X178788127Y-138422315D01*
X179485318Y-138422315D01*
X179523672Y-138414693D01*
X179557400Y-138391358D01*
X179580667Y-138357561D01*
X179588266Y-138319184D01*
X179580662Y-138280728D01*
X179557400Y-138246918D01*
X179523672Y-138223583D01*
X179485318Y-138215961D01*
X178685178Y-138215961D01*
X178646824Y-138223583D01*
X178613096Y-138246918D01*
X178589833Y-138280639D01*
X178582230Y-138319001D01*
X178582230Y-138719254D01*
X178589833Y-138757615D01*
X178613096Y-138791336D01*
X179413236Y-139592025D01*
X179447013Y-139615224D01*
X179485318Y-139622800D01*
G37*
D11*
X143902506Y-127201104D02*
X144378696Y-127201104D01*
X143807268Y-127486819D02*
X144140601Y-126486819D01*
X144140601Y-126486819D02*
X144473934Y-127486819D01*
X144807268Y-126963009D02*
X145140601Y-126963009D01*
X145283458Y-127486819D02*
X144807268Y-127486819D01*
X144807268Y-127486819D02*
X144807268Y-126486819D01*
X144807268Y-126486819D02*
X145283458Y-126486819D01*
X146235839Y-127486819D02*
X145664411Y-127486819D01*
X145950125Y-127486819D02*
X145950125Y-126486819D01*
X145950125Y-126486819D02*
X145854887Y-126629676D01*
X145854887Y-126629676D02*
X145759649Y-126724914D01*
X145759649Y-126724914D02*
X145664411Y-126772533D01*
D12*
%TO.C,G\u002A\u002A\u002A*%
G36*
X179120325Y-127977001D02*
G01*
X179167028Y-127981305D01*
X179200847Y-127991426D01*
X179231113Y-128009379D01*
X179294775Y-128067434D01*
X179341676Y-128144070D01*
X179362664Y-128231787D01*
X179357113Y-128328997D01*
X179356879Y-128330204D01*
X179336879Y-128379281D01*
X179299606Y-128432589D01*
X179252582Y-128481011D01*
X179203326Y-128515430D01*
X179187269Y-128522504D01*
X179134855Y-128534031D01*
X179063563Y-128535054D01*
X179016956Y-128530730D01*
X178950165Y-128511821D01*
X178893943Y-128474470D01*
X178839731Y-128414049D01*
X178837505Y-128411112D01*
X178817933Y-128381532D01*
X178806792Y-128351726D01*
X178801790Y-128312298D01*
X178800632Y-128253849D01*
X178800639Y-128247637D01*
X178802045Y-128191261D01*
X178807501Y-128153069D01*
X178819298Y-128123664D01*
X178839731Y-128093650D01*
X178841163Y-128091777D01*
X178891478Y-128034573D01*
X178941676Y-127999255D01*
X179000855Y-127981345D01*
X179078111Y-127976370D01*
X179120325Y-127977001D01*
G37*
G36*
X180827888Y-127977001D02*
G01*
X180874591Y-127981305D01*
X180908410Y-127991426D01*
X180938676Y-128009379D01*
X181002338Y-128067434D01*
X181049239Y-128144070D01*
X181070227Y-128231787D01*
X181064676Y-128328997D01*
X181064442Y-128330204D01*
X181044442Y-128379281D01*
X181007169Y-128432589D01*
X180960145Y-128481011D01*
X180910889Y-128515430D01*
X180894832Y-128522504D01*
X180842418Y-128534031D01*
X180771126Y-128535054D01*
X180724519Y-128530730D01*
X180657728Y-128511821D01*
X180601506Y-128474470D01*
X180547294Y-128414049D01*
X180545068Y-128411112D01*
X180525496Y-128381532D01*
X180514355Y-128351726D01*
X180509353Y-128312298D01*
X180508195Y-128253849D01*
X180508202Y-128247637D01*
X180509608Y-128191261D01*
X180515064Y-128153069D01*
X180526861Y-128123664D01*
X180547294Y-128093650D01*
X180548727Y-128091777D01*
X180599041Y-128034573D01*
X180649239Y-127999255D01*
X180708418Y-127981345D01*
X180785674Y-127976370D01*
X180827888Y-127977001D01*
G37*
G36*
X180827888Y-133668878D02*
G01*
X180874591Y-133673181D01*
X180908410Y-133683303D01*
X180938676Y-133701256D01*
X181002338Y-133759310D01*
X181049239Y-133835947D01*
X181070227Y-133923663D01*
X181064676Y-134020874D01*
X181064442Y-134022080D01*
X181044442Y-134071158D01*
X181007169Y-134124465D01*
X180960145Y-134172888D01*
X180910889Y-134207307D01*
X180894832Y-134214381D01*
X180842418Y-134225907D01*
X180771126Y-134226931D01*
X180724519Y-134222607D01*
X180657728Y-134203698D01*
X180601506Y-134166346D01*
X180547294Y-134105925D01*
X180545068Y-134102988D01*
X180525496Y-134073408D01*
X180514355Y-134043603D01*
X180509353Y-134004174D01*
X180508195Y-133945726D01*
X180508202Y-133939514D01*
X180509608Y-133883138D01*
X180515064Y-133844946D01*
X180526861Y-133815541D01*
X180547294Y-133785526D01*
X180548727Y-133783654D01*
X180599041Y-133726450D01*
X180649239Y-133691131D01*
X180708418Y-133673222D01*
X180785674Y-133668247D01*
X180827888Y-133668878D01*
G37*
G36*
X181966263Y-126838626D02*
G01*
X182012966Y-126842929D01*
X182046785Y-126853051D01*
X182077051Y-126871004D01*
X182140714Y-126929058D01*
X182187615Y-127005695D01*
X182208602Y-127093411D01*
X182203052Y-127190622D01*
X182202817Y-127191828D01*
X182182817Y-127240905D01*
X182145545Y-127294213D01*
X182098520Y-127342635D01*
X182049264Y-127377055D01*
X182033207Y-127384129D01*
X181980793Y-127395655D01*
X181909501Y-127396678D01*
X181862894Y-127392355D01*
X181796104Y-127373446D01*
X181739882Y-127336094D01*
X181685670Y-127275673D01*
X181683443Y-127272736D01*
X181663871Y-127243156D01*
X181652731Y-127213351D01*
X181647728Y-127173922D01*
X181646571Y-127115474D01*
X181646577Y-127109262D01*
X181647984Y-127052886D01*
X181653439Y-127014694D01*
X181665237Y-126985289D01*
X181685670Y-126955274D01*
X181687102Y-126953401D01*
X181737416Y-126896198D01*
X181787615Y-126860879D01*
X181846794Y-126842970D01*
X181924050Y-126837995D01*
X181966263Y-126838626D01*
G37*
G36*
X182535451Y-127407814D02*
G01*
X182582154Y-127412117D01*
X182615973Y-127422239D01*
X182646239Y-127440191D01*
X182709902Y-127498246D01*
X182756802Y-127574882D01*
X182777790Y-127662599D01*
X182772239Y-127759810D01*
X182772005Y-127761016D01*
X182752005Y-127810093D01*
X182714732Y-127863401D01*
X182667708Y-127911823D01*
X182618452Y-127946243D01*
X182602395Y-127953317D01*
X182549981Y-127964843D01*
X182478689Y-127965866D01*
X182432082Y-127961542D01*
X182365291Y-127942634D01*
X182309069Y-127905282D01*
X182254857Y-127844861D01*
X182252631Y-127841924D01*
X182233059Y-127812344D01*
X182221918Y-127782538D01*
X182216916Y-127743110D01*
X182215758Y-127684661D01*
X182215765Y-127678449D01*
X182217171Y-127622073D01*
X182222627Y-127583882D01*
X182234424Y-127554477D01*
X182254857Y-127524462D01*
X182256290Y-127522589D01*
X182306604Y-127465386D01*
X182356802Y-127430067D01*
X182415981Y-127412158D01*
X182493237Y-127407182D01*
X182535451Y-127407814D01*
G37*
G36*
X182535451Y-129684564D02*
G01*
X182582154Y-129688868D01*
X182615973Y-129698989D01*
X182646239Y-129716942D01*
X182709902Y-129774997D01*
X182756802Y-129851633D01*
X182777790Y-129939350D01*
X182772239Y-130036560D01*
X182772005Y-130037767D01*
X182752005Y-130086844D01*
X182714732Y-130140152D01*
X182667708Y-130188574D01*
X182618452Y-130222993D01*
X182602395Y-130230067D01*
X182549981Y-130241594D01*
X182478689Y-130242617D01*
X182432082Y-130238293D01*
X182365291Y-130219384D01*
X182309069Y-130182033D01*
X182254857Y-130121612D01*
X182252631Y-130118675D01*
X182233059Y-130089095D01*
X182221918Y-130059289D01*
X182216916Y-130019861D01*
X182215758Y-129961412D01*
X182215765Y-129955200D01*
X182217171Y-129898824D01*
X182222627Y-129860632D01*
X182234424Y-129831227D01*
X182254857Y-129801213D01*
X182256290Y-129799340D01*
X182306604Y-129742136D01*
X182356802Y-129706818D01*
X182415981Y-129688908D01*
X182493237Y-129683933D01*
X182535451Y-129684564D01*
G37*
G36*
X183104639Y-134807253D02*
G01*
X183151342Y-134811557D01*
X183185160Y-134821678D01*
X183215427Y-134839631D01*
X183279089Y-134897686D01*
X183325990Y-134974322D01*
X183346978Y-135062039D01*
X183341427Y-135159250D01*
X183341192Y-135160456D01*
X183321192Y-135209533D01*
X183283920Y-135262841D01*
X183236896Y-135311263D01*
X183187639Y-135345682D01*
X183171582Y-135352756D01*
X183119168Y-135364283D01*
X183047877Y-135365306D01*
X183001269Y-135360982D01*
X182934479Y-135342073D01*
X182878257Y-135304722D01*
X182824045Y-135244301D01*
X182821818Y-135241364D01*
X182802246Y-135211784D01*
X182791106Y-135181978D01*
X182786104Y-135142550D01*
X182784946Y-135084101D01*
X182784952Y-135077889D01*
X182786359Y-135021513D01*
X182791814Y-134983321D01*
X182803612Y-134953917D01*
X182824045Y-134923902D01*
X182825477Y-134922029D01*
X182875792Y-134864826D01*
X182925990Y-134829507D01*
X182985169Y-134811597D01*
X183062425Y-134806622D01*
X183104639Y-134807253D01*
G37*
G36*
X183673826Y-123423500D02*
G01*
X183720530Y-123427803D01*
X183754348Y-123437925D01*
X183784614Y-123455878D01*
X183848277Y-123513932D01*
X183895178Y-123590569D01*
X183916165Y-123678285D01*
X183910615Y-123775496D01*
X183910380Y-123776702D01*
X183890380Y-123825779D01*
X183853108Y-123879087D01*
X183806083Y-123927509D01*
X183756827Y-123961929D01*
X183740770Y-123969003D01*
X183688356Y-123980529D01*
X183617064Y-123981552D01*
X183570457Y-123977229D01*
X183503667Y-123958320D01*
X183447445Y-123920968D01*
X183393233Y-123860547D01*
X183391006Y-123857610D01*
X183371434Y-123828030D01*
X183360294Y-123798225D01*
X183355291Y-123758796D01*
X183354134Y-123700348D01*
X183354140Y-123694136D01*
X183355547Y-123637760D01*
X183361002Y-123599568D01*
X183372800Y-123570163D01*
X183393233Y-123540148D01*
X183394665Y-123538275D01*
X183444979Y-123481072D01*
X183495178Y-123445753D01*
X183554357Y-123427844D01*
X183631613Y-123422869D01*
X183673826Y-123423500D01*
G37*
G36*
X184812202Y-134238066D02*
G01*
X184858905Y-134242369D01*
X184892723Y-134252491D01*
X184922990Y-134270444D01*
X184986652Y-134328498D01*
X185033553Y-134405134D01*
X185054541Y-134492851D01*
X185048990Y-134590062D01*
X185048755Y-134591268D01*
X185028755Y-134640345D01*
X184991483Y-134693653D01*
X184944459Y-134742075D01*
X184895202Y-134776495D01*
X184879145Y-134783569D01*
X184826731Y-134795095D01*
X184755440Y-134796118D01*
X184708833Y-134791794D01*
X184642042Y-134772886D01*
X184585820Y-134735534D01*
X184531608Y-134675113D01*
X184529381Y-134672176D01*
X184509809Y-134642596D01*
X184498669Y-134612791D01*
X184493667Y-134573362D01*
X184492509Y-134514914D01*
X184492515Y-134508701D01*
X184493922Y-134452325D01*
X184499377Y-134414134D01*
X184511175Y-134384729D01*
X184531608Y-134354714D01*
X184533040Y-134352841D01*
X184583355Y-134295638D01*
X184633553Y-134260319D01*
X184692732Y-134242410D01*
X184769988Y-134237435D01*
X184812202Y-134238066D01*
G37*
G36*
X185950577Y-126269438D02*
G01*
X185997280Y-126273742D01*
X186031099Y-126283863D01*
X186061365Y-126301816D01*
X186125028Y-126359871D01*
X186171928Y-126436507D01*
X186192916Y-126524224D01*
X186187365Y-126621434D01*
X186187131Y-126622641D01*
X186167131Y-126671718D01*
X186129858Y-126725026D01*
X186082834Y-126773448D01*
X186033578Y-126807867D01*
X186017521Y-126814941D01*
X185965107Y-126826468D01*
X185893815Y-126827491D01*
X185847208Y-126823167D01*
X185780418Y-126804258D01*
X185724195Y-126766907D01*
X185669983Y-126706486D01*
X185667757Y-126703549D01*
X185648185Y-126673969D01*
X185637044Y-126644163D01*
X185632042Y-126604735D01*
X185630884Y-126546286D01*
X185630891Y-126540074D01*
X185632297Y-126483698D01*
X185637753Y-126445506D01*
X185649550Y-126416101D01*
X185669983Y-126386087D01*
X185671416Y-126384214D01*
X185721730Y-126327010D01*
X185771929Y-126291692D01*
X185831107Y-126273782D01*
X185908363Y-126268807D01*
X185950577Y-126269438D01*
G37*
G36*
X186519765Y-137084004D02*
G01*
X186566468Y-137088308D01*
X186600286Y-137098429D01*
X186630553Y-137116382D01*
X186694215Y-137174437D01*
X186741116Y-137251073D01*
X186762104Y-137338789D01*
X186756553Y-137436000D01*
X186756318Y-137437206D01*
X186736318Y-137486284D01*
X186699046Y-137539592D01*
X186652022Y-137588014D01*
X186602765Y-137622433D01*
X186586708Y-137629507D01*
X186534294Y-137641034D01*
X186463003Y-137642057D01*
X186416396Y-137637733D01*
X186349605Y-137618824D01*
X186293383Y-137581472D01*
X186239171Y-137521051D01*
X186236944Y-137518114D01*
X186217372Y-137488535D01*
X186206232Y-137458729D01*
X186201230Y-137419300D01*
X186200072Y-137360852D01*
X186200078Y-137354640D01*
X186201485Y-137298264D01*
X186206941Y-137260072D01*
X186218738Y-137230667D01*
X186239171Y-137200652D01*
X186240603Y-137198780D01*
X186290918Y-137141576D01*
X186341116Y-137106258D01*
X186400295Y-137088348D01*
X186477551Y-137083373D01*
X186519765Y-137084004D01*
G37*
G36*
X188227328Y-131961315D02*
G01*
X188274031Y-131965618D01*
X188307849Y-131975740D01*
X188338116Y-131993693D01*
X188401778Y-132051747D01*
X188448679Y-132128384D01*
X188469667Y-132216100D01*
X188464116Y-132313311D01*
X188463881Y-132314517D01*
X188443881Y-132363594D01*
X188406609Y-132416902D01*
X188359585Y-132465325D01*
X188310328Y-132499744D01*
X188294272Y-132506818D01*
X188241857Y-132518344D01*
X188170566Y-132519368D01*
X188123959Y-132515044D01*
X188057168Y-132496135D01*
X188000946Y-132458783D01*
X187946734Y-132398362D01*
X187944507Y-132395425D01*
X187924935Y-132365845D01*
X187913795Y-132336040D01*
X187908793Y-132296611D01*
X187907635Y-132238163D01*
X187907641Y-132231951D01*
X187909048Y-132175575D01*
X187914504Y-132137383D01*
X187926301Y-132107978D01*
X187946734Y-132077963D01*
X187948166Y-132076091D01*
X187998481Y-132018887D01*
X188048679Y-131983568D01*
X188107858Y-131965659D01*
X188185114Y-131960684D01*
X188227328Y-131961315D01*
G37*
G36*
X191073266Y-127977001D02*
G01*
X191119969Y-127981305D01*
X191153788Y-127991426D01*
X191184054Y-128009379D01*
X191247717Y-128067434D01*
X191294617Y-128144070D01*
X191315605Y-128231787D01*
X191310055Y-128328997D01*
X191309820Y-128330204D01*
X191289820Y-128379281D01*
X191252548Y-128432589D01*
X191205523Y-128481011D01*
X191156267Y-128515430D01*
X191140210Y-128522504D01*
X191087796Y-128534031D01*
X191016504Y-128535054D01*
X190969897Y-128530730D01*
X190903107Y-128511821D01*
X190846884Y-128474470D01*
X190792672Y-128414049D01*
X190790446Y-128411112D01*
X190770874Y-128381532D01*
X190759733Y-128351726D01*
X190754731Y-128312298D01*
X190753573Y-128253849D01*
X190753580Y-128247637D01*
X190754987Y-128191261D01*
X190760442Y-128153069D01*
X190772239Y-128123664D01*
X190792672Y-128093650D01*
X190794105Y-128091777D01*
X190844419Y-128034573D01*
X190894618Y-127999255D01*
X190953797Y-127981345D01*
X191031052Y-127976370D01*
X191073266Y-127977001D01*
G37*
G36*
X191073266Y-131961315D02*
G01*
X191119969Y-131965618D01*
X191153788Y-131975740D01*
X191184054Y-131993693D01*
X191247717Y-132051747D01*
X191294617Y-132128384D01*
X191315605Y-132216100D01*
X191310055Y-132313311D01*
X191309820Y-132314517D01*
X191289820Y-132363594D01*
X191252548Y-132416902D01*
X191205523Y-132465325D01*
X191156267Y-132499744D01*
X191140210Y-132506818D01*
X191087796Y-132518344D01*
X191016504Y-132519368D01*
X190969897Y-132515044D01*
X190903107Y-132496135D01*
X190846884Y-132458783D01*
X190792672Y-132398362D01*
X190790446Y-132395425D01*
X190770874Y-132365845D01*
X190759733Y-132336040D01*
X190754731Y-132296611D01*
X190753573Y-132238163D01*
X190753580Y-132231951D01*
X190754987Y-132175575D01*
X190760442Y-132137383D01*
X190772239Y-132107978D01*
X190792672Y-132077963D01*
X190794105Y-132076091D01*
X190844419Y-132018887D01*
X190894618Y-131983568D01*
X190953797Y-131965659D01*
X191031052Y-131960684D01*
X191073266Y-131961315D01*
G37*
G36*
X188338116Y-128009379D02*
G01*
X188401778Y-128067434D01*
X188448679Y-128144070D01*
X188469667Y-128231787D01*
X188464116Y-128328997D01*
X188463851Y-128330355D01*
X188443731Y-128379583D01*
X188406379Y-128432859D01*
X188359383Y-128481014D01*
X188310328Y-128514876D01*
X188305310Y-128517199D01*
X188290327Y-128522302D01*
X188269804Y-128526472D01*
X188241192Y-128529780D01*
X188201947Y-128532296D01*
X188149522Y-128534093D01*
X188081371Y-128535242D01*
X187994947Y-128535813D01*
X187887704Y-128535880D01*
X187757095Y-128535512D01*
X187600575Y-128534782D01*
X186937773Y-128531328D01*
X186886525Y-128492229D01*
X186884657Y-128490799D01*
X186827457Y-128440478D01*
X186792141Y-128390278D01*
X186774234Y-128331101D01*
X186769260Y-128253849D01*
X186769263Y-128251469D01*
X186774526Y-128174815D01*
X186792843Y-128115995D01*
X186828689Y-128065912D01*
X186886539Y-128015469D01*
X186937801Y-127976370D01*
X187614819Y-127976370D01*
X188291837Y-127976370D01*
X188338116Y-128009379D01*
G37*
G36*
X188907303Y-130286130D02*
G01*
X188970966Y-130344184D01*
X189017867Y-130420821D01*
X189038854Y-130508537D01*
X189033304Y-130605748D01*
X189033038Y-130607106D01*
X189012919Y-130656334D01*
X188975567Y-130709610D01*
X188928571Y-130757764D01*
X188879516Y-130791627D01*
X188874498Y-130793949D01*
X188859515Y-130799053D01*
X188838991Y-130803223D01*
X188810380Y-130806530D01*
X188771135Y-130809047D01*
X188718710Y-130810844D01*
X188650559Y-130811992D01*
X188564134Y-130812564D01*
X188456891Y-130812630D01*
X188326283Y-130812263D01*
X188169763Y-130811533D01*
X187506961Y-130808079D01*
X187455713Y-130768980D01*
X187453844Y-130767550D01*
X187396644Y-130717228D01*
X187361329Y-130667028D01*
X187343422Y-130607852D01*
X187338447Y-130530600D01*
X187338450Y-130528219D01*
X187343713Y-130451566D01*
X187362030Y-130392745D01*
X187397876Y-130342662D01*
X187455727Y-130292220D01*
X187506988Y-130253121D01*
X188184006Y-130253121D01*
X188861024Y-130253121D01*
X188907303Y-130286130D01*
G37*
G36*
X179174727Y-124560791D02*
G01*
X179322733Y-124584537D01*
X179455512Y-124630906D01*
X179576401Y-124701341D01*
X179688739Y-124797283D01*
X179715147Y-124824697D01*
X179804589Y-124938857D01*
X179868883Y-125062400D01*
X179909473Y-125198665D01*
X179927797Y-125350992D01*
X179926766Y-125476539D01*
X179904853Y-125616831D01*
X179858953Y-125744841D01*
X179787764Y-125863994D01*
X179689988Y-125977714D01*
X179637131Y-126027809D01*
X179535182Y-126105769D01*
X179426489Y-126163063D01*
X179302916Y-126204458D01*
X179293285Y-126206920D01*
X179145606Y-126229878D01*
X178999960Y-126226226D01*
X178859251Y-126197681D01*
X178726382Y-126145961D01*
X178604254Y-126072784D01*
X178495770Y-125979867D01*
X178403832Y-125868928D01*
X178331344Y-125741684D01*
X178281208Y-125599853D01*
X178259584Y-125483836D01*
X178255669Y-125333179D01*
X178279170Y-125186984D01*
X178329502Y-125047327D01*
X178406076Y-124916283D01*
X178508307Y-124795930D01*
X178603352Y-124711980D01*
X178720462Y-124636914D01*
X178845706Y-124587178D01*
X178982693Y-124561405D01*
X179135030Y-124558225D01*
X179174727Y-124560791D01*
G37*
G36*
X189420105Y-124560791D02*
G01*
X189568111Y-124584537D01*
X189700890Y-124630906D01*
X189821779Y-124701341D01*
X189934117Y-124797283D01*
X189960525Y-124824697D01*
X190049967Y-124938857D01*
X190114262Y-125062400D01*
X190154851Y-125198665D01*
X190173175Y-125350992D01*
X190172144Y-125476539D01*
X190150232Y-125616831D01*
X190104331Y-125744841D01*
X190033142Y-125863994D01*
X189935366Y-125977714D01*
X189882509Y-126027809D01*
X189780560Y-126105769D01*
X189671867Y-126163063D01*
X189548294Y-126204458D01*
X189538664Y-126206920D01*
X189390984Y-126229878D01*
X189245338Y-126226226D01*
X189104630Y-126197681D01*
X188971760Y-126145961D01*
X188849632Y-126072784D01*
X188741148Y-125979867D01*
X188649211Y-125868928D01*
X188576722Y-125741684D01*
X188526586Y-125599853D01*
X188504962Y-125483836D01*
X188501047Y-125333179D01*
X188524548Y-125186984D01*
X188574880Y-125047327D01*
X188651454Y-124916283D01*
X188753686Y-124795930D01*
X188848731Y-124711980D01*
X188965840Y-124636914D01*
X189091084Y-124587178D01*
X189228071Y-124561405D01*
X189380408Y-124558225D01*
X189420105Y-124560791D01*
G37*
G36*
X189420105Y-134806170D02*
G01*
X189568111Y-134829915D01*
X189700890Y-134876284D01*
X189821779Y-134946719D01*
X189934117Y-135042661D01*
X189960525Y-135070075D01*
X190049967Y-135184235D01*
X190114262Y-135307778D01*
X190154851Y-135444044D01*
X190173175Y-135596370D01*
X190172144Y-135721917D01*
X190150232Y-135862209D01*
X190104331Y-135990219D01*
X190033142Y-136109372D01*
X189935366Y-136223093D01*
X189882509Y-136273187D01*
X189780560Y-136351147D01*
X189671867Y-136408441D01*
X189548294Y-136449836D01*
X189538664Y-136452298D01*
X189390984Y-136475256D01*
X189245338Y-136471604D01*
X189104630Y-136443059D01*
X188971760Y-136391339D01*
X188849632Y-136318162D01*
X188741148Y-136225245D01*
X188649211Y-136114306D01*
X188576722Y-135987062D01*
X188526586Y-135845231D01*
X188504962Y-135729214D01*
X188501047Y-135578557D01*
X188524548Y-135432362D01*
X188574880Y-135292705D01*
X188651454Y-135161662D01*
X188753686Y-135041309D01*
X188848731Y-134957358D01*
X188965840Y-134882292D01*
X189091084Y-134832556D01*
X189228071Y-134806783D01*
X189380408Y-134803603D01*
X189420105Y-134806170D01*
G37*
G36*
X181930262Y-123422875D02*
G01*
X181986638Y-123424282D01*
X182024829Y-123429737D01*
X182054234Y-123441535D01*
X182084249Y-123461968D01*
X182093340Y-123469203D01*
X182134876Y-123508022D01*
X182168520Y-123547346D01*
X182172891Y-123553575D01*
X182182132Y-123568724D01*
X182189218Y-123586219D01*
X182194495Y-123609792D01*
X182198312Y-123643172D01*
X182201014Y-123690089D01*
X182202948Y-123754274D01*
X182204461Y-123839457D01*
X182205901Y-123949367D01*
X182206623Y-124023060D01*
X182206994Y-124118393D01*
X182206689Y-124203120D01*
X182205749Y-124272778D01*
X182204216Y-124322906D01*
X182202133Y-124349041D01*
X182200870Y-124354716D01*
X182179647Y-124401304D01*
X182142341Y-124452146D01*
X182096399Y-124498373D01*
X182049264Y-124531116D01*
X182033207Y-124538191D01*
X181980793Y-124549717D01*
X181909501Y-124550740D01*
X181862894Y-124546416D01*
X181796104Y-124527508D01*
X181739882Y-124490156D01*
X181685670Y-124429735D01*
X181646571Y-124378473D01*
X181646571Y-123986049D01*
X181646626Y-123872400D01*
X181646969Y-123780960D01*
X181647864Y-123711047D01*
X181649573Y-123659154D01*
X181652362Y-123621778D01*
X181656493Y-123595414D01*
X181662231Y-123576557D01*
X181669838Y-123561703D01*
X181679579Y-123547346D01*
X181685861Y-123539006D01*
X181722759Y-123498362D01*
X181763850Y-123461968D01*
X181766787Y-123459741D01*
X181796367Y-123440169D01*
X181826172Y-123429029D01*
X181865601Y-123424026D01*
X181924050Y-123422869D01*
X181930262Y-123422875D01*
G37*
G36*
X181930262Y-127976377D02*
G01*
X181986638Y-127977783D01*
X182024829Y-127983239D01*
X182054234Y-127995036D01*
X182084249Y-128015469D01*
X182093340Y-128022704D01*
X182134876Y-128061524D01*
X182168520Y-128100847D01*
X182172891Y-128107077D01*
X182182132Y-128122225D01*
X182189218Y-128139721D01*
X182194495Y-128163293D01*
X182198312Y-128196673D01*
X182201014Y-128243591D01*
X182202948Y-128307775D01*
X182204461Y-128392958D01*
X182205901Y-128502869D01*
X182206623Y-128576561D01*
X182206994Y-128671895D01*
X182206689Y-128756621D01*
X182205749Y-128826280D01*
X182204216Y-128876407D01*
X182202133Y-128902542D01*
X182200870Y-128908217D01*
X182179647Y-128954806D01*
X182142341Y-129005647D01*
X182096399Y-129051874D01*
X182049264Y-129084618D01*
X182033207Y-129091692D01*
X181980793Y-129103218D01*
X181909501Y-129104241D01*
X181862894Y-129099918D01*
X181796104Y-129081009D01*
X181739882Y-129043657D01*
X181685670Y-128983236D01*
X181646571Y-128931975D01*
X181646571Y-128539551D01*
X181646626Y-128425902D01*
X181646969Y-128334462D01*
X181647864Y-128264548D01*
X181649573Y-128212655D01*
X181652362Y-128175280D01*
X181656493Y-128148916D01*
X181662231Y-128130059D01*
X181669838Y-128115204D01*
X181679579Y-128100847D01*
X181685861Y-128092507D01*
X181722759Y-128051863D01*
X181763850Y-128015469D01*
X181766787Y-128013243D01*
X181796367Y-127993671D01*
X181826172Y-127982530D01*
X181865601Y-127977528D01*
X181924050Y-127976370D01*
X181930262Y-127976377D01*
G37*
G36*
X186483763Y-123422875D02*
G01*
X186540139Y-123424282D01*
X186578331Y-123429737D01*
X186607736Y-123441535D01*
X186637750Y-123461968D01*
X186646842Y-123469203D01*
X186688377Y-123508022D01*
X186722021Y-123547346D01*
X186726392Y-123553575D01*
X186735633Y-123568724D01*
X186742719Y-123586219D01*
X186747997Y-123609792D01*
X186751813Y-123643172D01*
X186754515Y-123690089D01*
X186756449Y-123754274D01*
X186757963Y-123839457D01*
X186759402Y-123949367D01*
X186760124Y-124023060D01*
X186760496Y-124118393D01*
X186760190Y-124203120D01*
X186759250Y-124272778D01*
X186757718Y-124322906D01*
X186755635Y-124349041D01*
X186754371Y-124354716D01*
X186733148Y-124401304D01*
X186695843Y-124452146D01*
X186649900Y-124498373D01*
X186602765Y-124531116D01*
X186586708Y-124538191D01*
X186534294Y-124549717D01*
X186463003Y-124550740D01*
X186416396Y-124546416D01*
X186349605Y-124527508D01*
X186293383Y-124490156D01*
X186239171Y-124429735D01*
X186200072Y-124378473D01*
X186200072Y-123986049D01*
X186200127Y-123872400D01*
X186200470Y-123780960D01*
X186201365Y-123711047D01*
X186203075Y-123659154D01*
X186205864Y-123621778D01*
X186209995Y-123595414D01*
X186215732Y-123576557D01*
X186223340Y-123561703D01*
X186233081Y-123547346D01*
X186239363Y-123539006D01*
X186276260Y-123498362D01*
X186317351Y-123461968D01*
X186320288Y-123459741D01*
X186349868Y-123440169D01*
X186379674Y-123429029D01*
X186419102Y-123424026D01*
X186477551Y-123422869D01*
X186483763Y-123422875D01*
G37*
G36*
X189329701Y-129114752D02*
G01*
X189386077Y-129116159D01*
X189424269Y-129121614D01*
X189453674Y-129133411D01*
X189483689Y-129153844D01*
X189492780Y-129161079D01*
X189534315Y-129199899D01*
X189567959Y-129239223D01*
X189572331Y-129245452D01*
X189581572Y-129260601D01*
X189588658Y-129278096D01*
X189593935Y-129301669D01*
X189597752Y-129335049D01*
X189600453Y-129381966D01*
X189602388Y-129446151D01*
X189603901Y-129531333D01*
X189605341Y-129641244D01*
X189606063Y-129714937D01*
X189606434Y-129810270D01*
X189606129Y-129894997D01*
X189605189Y-129964655D01*
X189603656Y-130014783D01*
X189601573Y-130040917D01*
X189600310Y-130046593D01*
X189579087Y-130093181D01*
X189541781Y-130144023D01*
X189495838Y-130190249D01*
X189448704Y-130222993D01*
X189432647Y-130230067D01*
X189380233Y-130241594D01*
X189308941Y-130242617D01*
X189262334Y-130238293D01*
X189195544Y-130219384D01*
X189139321Y-130182033D01*
X189085109Y-130121612D01*
X189046010Y-130070350D01*
X189046010Y-129677926D01*
X189046066Y-129564277D01*
X189046409Y-129472837D01*
X189047303Y-129402923D01*
X189049013Y-129351031D01*
X189051802Y-129313655D01*
X189055933Y-129287291D01*
X189061671Y-129268434D01*
X189069278Y-129253579D01*
X189079019Y-129239223D01*
X189085301Y-129230883D01*
X189122198Y-129190238D01*
X189163290Y-129153844D01*
X189166227Y-129151618D01*
X189195807Y-129132046D01*
X189225612Y-129120906D01*
X189265041Y-129115903D01*
X189323489Y-129114745D01*
X189329701Y-129114752D01*
G37*
G36*
X189329701Y-131960690D02*
G01*
X189386077Y-131962097D01*
X189424269Y-131967552D01*
X189453674Y-131979350D01*
X189483689Y-131999783D01*
X189492780Y-132007018D01*
X189534315Y-132045837D01*
X189567959Y-132085161D01*
X189572331Y-132091390D01*
X189581572Y-132106539D01*
X189588658Y-132124034D01*
X189593935Y-132147607D01*
X189597752Y-132180987D01*
X189600453Y-132227904D01*
X189602388Y-132292089D01*
X189603901Y-132377272D01*
X189605341Y-132487182D01*
X189606063Y-132560875D01*
X189606434Y-132656208D01*
X189606129Y-132740935D01*
X189605189Y-132810593D01*
X189603656Y-132860721D01*
X189601573Y-132886856D01*
X189600310Y-132892531D01*
X189579087Y-132939120D01*
X189541781Y-132989961D01*
X189495838Y-133036188D01*
X189448704Y-133068932D01*
X189432647Y-133076006D01*
X189380233Y-133087532D01*
X189308941Y-133088555D01*
X189262334Y-133084231D01*
X189195544Y-133065323D01*
X189139321Y-133027971D01*
X189085109Y-132967550D01*
X189046010Y-132916289D01*
X189046010Y-132523864D01*
X189046066Y-132410216D01*
X189046409Y-132318776D01*
X189047303Y-132248862D01*
X189049013Y-132196969D01*
X189051802Y-132159593D01*
X189055933Y-132133229D01*
X189061671Y-132114372D01*
X189069278Y-132099518D01*
X189079019Y-132085161D01*
X189085301Y-132076821D01*
X189122198Y-132036177D01*
X189163290Y-131999783D01*
X189166227Y-131997556D01*
X189195807Y-131977984D01*
X189225612Y-131966844D01*
X189265041Y-131961842D01*
X189323489Y-131960684D01*
X189329701Y-131960690D01*
G37*
G36*
X177897087Y-128020223D02*
G01*
X177918715Y-128031073D01*
X178021553Y-128100876D01*
X178108175Y-128191091D01*
X178173362Y-128296497D01*
X178186121Y-128323951D01*
X178198960Y-128355408D01*
X178207907Y-128386457D01*
X178213823Y-128422869D01*
X178217574Y-128470418D01*
X178220020Y-128534878D01*
X178222026Y-128622020D01*
X178222842Y-128671728D01*
X178223267Y-128750589D01*
X178222591Y-128819056D01*
X178220894Y-128871113D01*
X178218258Y-128900741D01*
X178217449Y-128904567D01*
X178196699Y-128952176D01*
X178159375Y-129004041D01*
X178112963Y-129051182D01*
X178064950Y-129084618D01*
X178048893Y-129091692D01*
X177996479Y-129103218D01*
X177925188Y-129104241D01*
X177878580Y-129099918D01*
X177811811Y-129081019D01*
X177755591Y-129043687D01*
X177701356Y-128983293D01*
X177698850Y-128979998D01*
X177683887Y-128958590D01*
X177673499Y-128937054D01*
X177666684Y-128909726D01*
X177662438Y-128870938D01*
X177659758Y-128815025D01*
X177657642Y-128736323D01*
X177653028Y-128540557D01*
X177458427Y-128535943D01*
X177428151Y-128535145D01*
X177345770Y-128531244D01*
X177284302Y-128523704D01*
X177237977Y-128510371D01*
X177201026Y-128489087D01*
X177167680Y-128457698D01*
X177132168Y-128414049D01*
X177130835Y-128412295D01*
X177110811Y-128382340D01*
X177099399Y-128352464D01*
X177094262Y-128313169D01*
X177093069Y-128254957D01*
X177093086Y-128249385D01*
X177098598Y-128173474D01*
X177117032Y-128115208D01*
X177152815Y-128065551D01*
X177210370Y-128015469D01*
X177261652Y-127976370D01*
X177533103Y-127976370D01*
X177804554Y-127976370D01*
X177897087Y-128020223D01*
G37*
G36*
X189850029Y-128020223D02*
G01*
X189871656Y-128031073D01*
X189974494Y-128100876D01*
X190061116Y-128191091D01*
X190126303Y-128296497D01*
X190139062Y-128323951D01*
X190151901Y-128355408D01*
X190160848Y-128386457D01*
X190166765Y-128422869D01*
X190170515Y-128470418D01*
X190172961Y-128534878D01*
X190174967Y-128622020D01*
X190175783Y-128671728D01*
X190176209Y-128750589D01*
X190175532Y-128819056D01*
X190173835Y-128871113D01*
X190171200Y-128900741D01*
X190170390Y-128904567D01*
X190149640Y-128952176D01*
X190112316Y-129004041D01*
X190065904Y-129051182D01*
X190017891Y-129084618D01*
X190001835Y-129091692D01*
X189949420Y-129103218D01*
X189878129Y-129104241D01*
X189831521Y-129099918D01*
X189764753Y-129081019D01*
X189708533Y-129043687D01*
X189654297Y-128983293D01*
X189651791Y-128979998D01*
X189636828Y-128958590D01*
X189626441Y-128937054D01*
X189619625Y-128909726D01*
X189615379Y-128870938D01*
X189612699Y-128815025D01*
X189610583Y-128736323D01*
X189605969Y-128540557D01*
X189411368Y-128535943D01*
X189381092Y-128535145D01*
X189298711Y-128531244D01*
X189237243Y-128523704D01*
X189190918Y-128510371D01*
X189153967Y-128489087D01*
X189120621Y-128457698D01*
X189085109Y-128414049D01*
X189083776Y-128412295D01*
X189063753Y-128382340D01*
X189052340Y-128352464D01*
X189047204Y-128313169D01*
X189046010Y-128254957D01*
X189046027Y-128249385D01*
X189051539Y-128173474D01*
X189069973Y-128115208D01*
X189105756Y-128065551D01*
X189163311Y-128015469D01*
X189214594Y-127976370D01*
X189486044Y-127976370D01*
X189757495Y-127976370D01*
X189850029Y-128020223D01*
G37*
G36*
X178336324Y-131391550D02*
G01*
X178427923Y-131391889D01*
X178497958Y-131392778D01*
X178549939Y-131394483D01*
X178587378Y-131397268D01*
X178613785Y-131401398D01*
X178632671Y-131407138D01*
X178647548Y-131414752D01*
X178661925Y-131424505D01*
X178725588Y-131482560D01*
X178772489Y-131559196D01*
X178793476Y-131646913D01*
X178787926Y-131744123D01*
X178787667Y-131745447D01*
X178767575Y-131794640D01*
X178730242Y-131847923D01*
X178683239Y-131896140D01*
X178634138Y-131930132D01*
X178624892Y-131934306D01*
X178604870Y-131940537D01*
X178577683Y-131945162D01*
X178539784Y-131948349D01*
X178487624Y-131950264D01*
X178417656Y-131951072D01*
X178326330Y-131950941D01*
X178210100Y-131950038D01*
X178127238Y-131949220D01*
X178031714Y-131948031D01*
X177958513Y-131946526D01*
X177904040Y-131944393D01*
X177864699Y-131941323D01*
X177836893Y-131937004D01*
X177817028Y-131931125D01*
X177801507Y-131923376D01*
X177786734Y-131913445D01*
X177778394Y-131907164D01*
X177737750Y-131870266D01*
X177701356Y-131829175D01*
X177699129Y-131826238D01*
X177679557Y-131796658D01*
X177668417Y-131766852D01*
X177663415Y-131727424D01*
X177662257Y-131668975D01*
X177662263Y-131662763D01*
X177663670Y-131606387D01*
X177669125Y-131568195D01*
X177680923Y-131538790D01*
X177701356Y-131508776D01*
X177708591Y-131499684D01*
X177747410Y-131458149D01*
X177786734Y-131424505D01*
X177800606Y-131415064D01*
X177815403Y-131407378D01*
X177834084Y-131401575D01*
X177860159Y-131397392D01*
X177897140Y-131394563D01*
X177948536Y-131392824D01*
X178017859Y-131391910D01*
X178108620Y-131391555D01*
X178224330Y-131391496D01*
X178336324Y-131391550D01*
G37*
G36*
X181751450Y-131391550D02*
G01*
X181843049Y-131391889D01*
X181913084Y-131392778D01*
X181965065Y-131394483D01*
X182002504Y-131397268D01*
X182028911Y-131401398D01*
X182047798Y-131407138D01*
X182062674Y-131414752D01*
X182077051Y-131424505D01*
X182140714Y-131482560D01*
X182187615Y-131559196D01*
X182208602Y-131646913D01*
X182203052Y-131744123D01*
X182202793Y-131745447D01*
X182182701Y-131794640D01*
X182145368Y-131847923D01*
X182098365Y-131896140D01*
X182049264Y-131930132D01*
X182040018Y-131934306D01*
X182019996Y-131940537D01*
X181992809Y-131945162D01*
X181954910Y-131948349D01*
X181902750Y-131950264D01*
X181832782Y-131951072D01*
X181741456Y-131950941D01*
X181625226Y-131950038D01*
X181542364Y-131949220D01*
X181446840Y-131948031D01*
X181373639Y-131946526D01*
X181319166Y-131944393D01*
X181279825Y-131941323D01*
X181252019Y-131937004D01*
X181232154Y-131931125D01*
X181216633Y-131923376D01*
X181201860Y-131913445D01*
X181193520Y-131907164D01*
X181152876Y-131870266D01*
X181116482Y-131829175D01*
X181114255Y-131826238D01*
X181094683Y-131796658D01*
X181083543Y-131766852D01*
X181078541Y-131727424D01*
X181077383Y-131668975D01*
X181077389Y-131662763D01*
X181078796Y-131606387D01*
X181084251Y-131568195D01*
X181096049Y-131538790D01*
X181116482Y-131508776D01*
X181123717Y-131499684D01*
X181162536Y-131458149D01*
X181201860Y-131424505D01*
X181215732Y-131415064D01*
X181230529Y-131407378D01*
X181249210Y-131401575D01*
X181275285Y-131397392D01*
X181312266Y-131394563D01*
X181363662Y-131392824D01*
X181432985Y-131391910D01*
X181523746Y-131391555D01*
X181639456Y-131391496D01*
X181751450Y-131391550D01*
G37*
G36*
X188012514Y-129114799D02*
G01*
X188104113Y-129115138D01*
X188174148Y-129116028D01*
X188226129Y-129117733D01*
X188263568Y-129120518D01*
X188289976Y-129124647D01*
X188308862Y-129130387D01*
X188323738Y-129138001D01*
X188338116Y-129147754D01*
X188401778Y-129205809D01*
X188448679Y-129282445D01*
X188469667Y-129370162D01*
X188464116Y-129467373D01*
X188463858Y-129468696D01*
X188443766Y-129517889D01*
X188406432Y-129571172D01*
X188359430Y-129619389D01*
X188310328Y-129653382D01*
X188301082Y-129657555D01*
X188281060Y-129663786D01*
X188253874Y-129668412D01*
X188215975Y-129671599D01*
X188163815Y-129673513D01*
X188093846Y-129674322D01*
X188002521Y-129674191D01*
X187886290Y-129673287D01*
X187803429Y-129672469D01*
X187707905Y-129671281D01*
X187634704Y-129669775D01*
X187580230Y-129667643D01*
X187540889Y-129664572D01*
X187513083Y-129660253D01*
X187493218Y-129654374D01*
X187477697Y-129646625D01*
X187462924Y-129636694D01*
X187454584Y-129630413D01*
X187413940Y-129593515D01*
X187377546Y-129552424D01*
X187375320Y-129549487D01*
X187355748Y-129519907D01*
X187344607Y-129490101D01*
X187339605Y-129450673D01*
X187338447Y-129392224D01*
X187338454Y-129386012D01*
X187339860Y-129329636D01*
X187345316Y-129291445D01*
X187357113Y-129262040D01*
X187377546Y-129232025D01*
X187384781Y-129222934D01*
X187423601Y-129181398D01*
X187462924Y-129147754D01*
X187476796Y-129138314D01*
X187491594Y-129130627D01*
X187510275Y-129124825D01*
X187536350Y-129120641D01*
X187573330Y-129117813D01*
X187624727Y-129116073D01*
X187694050Y-129115159D01*
X187784811Y-129114805D01*
X187900520Y-129114745D01*
X188012514Y-129114799D01*
G37*
G36*
X190858453Y-129114799D02*
G01*
X190950052Y-129115138D01*
X191020086Y-129116028D01*
X191072068Y-129117733D01*
X191109507Y-129120518D01*
X191135914Y-129124647D01*
X191154800Y-129130387D01*
X191169677Y-129138001D01*
X191184054Y-129147754D01*
X191247717Y-129205809D01*
X191294617Y-129282445D01*
X191315605Y-129370162D01*
X191310055Y-129467373D01*
X191309796Y-129468696D01*
X191289704Y-129517889D01*
X191252371Y-129571172D01*
X191205368Y-129619389D01*
X191156267Y-129653382D01*
X191147020Y-129657555D01*
X191126999Y-129663786D01*
X191099812Y-129668412D01*
X191061913Y-129671599D01*
X191009753Y-129673513D01*
X190939784Y-129674322D01*
X190848459Y-129674191D01*
X190732229Y-129673287D01*
X190649367Y-129672469D01*
X190553843Y-129671281D01*
X190480642Y-129669775D01*
X190426169Y-129667643D01*
X190386827Y-129664572D01*
X190359022Y-129660253D01*
X190339156Y-129654374D01*
X190323635Y-129646625D01*
X190308863Y-129636694D01*
X190300523Y-129630413D01*
X190259879Y-129593515D01*
X190223485Y-129552424D01*
X190221258Y-129549487D01*
X190201686Y-129519907D01*
X190190546Y-129490101D01*
X190185543Y-129450673D01*
X190184386Y-129392224D01*
X190184392Y-129386012D01*
X190185799Y-129329636D01*
X190191254Y-129291445D01*
X190203052Y-129262040D01*
X190223485Y-129232025D01*
X190230720Y-129222934D01*
X190269539Y-129181398D01*
X190308863Y-129147754D01*
X190322735Y-129138314D01*
X190337532Y-129130627D01*
X190356213Y-129124825D01*
X190382288Y-129120641D01*
X190419269Y-129117813D01*
X190470665Y-129116073D01*
X190539988Y-129115159D01*
X190630749Y-129114805D01*
X190746458Y-129114745D01*
X190858453Y-129114799D01*
G37*
G36*
X179238290Y-129723032D02*
G01*
X179240169Y-129724469D01*
X179297377Y-129774772D01*
X179332701Y-129824968D01*
X179350614Y-129884150D01*
X179355590Y-129961412D01*
X179355587Y-129963771D01*
X179350330Y-130040415D01*
X179332027Y-130099229D01*
X179296198Y-130149320D01*
X179238368Y-130199792D01*
X179235461Y-130202003D01*
X179213958Y-130217080D01*
X179192419Y-130227546D01*
X179165160Y-130234411D01*
X179126497Y-130238684D01*
X179070746Y-130241374D01*
X178992223Y-130243491D01*
X178797284Y-130248091D01*
X178789225Y-130326170D01*
X178768435Y-130422474D01*
X178721400Y-130526734D01*
X178652895Y-130621791D01*
X178566620Y-130702628D01*
X178466275Y-130764226D01*
X178373741Y-130808079D01*
X178014442Y-130812524D01*
X177655142Y-130816970D01*
X177655142Y-130995360D01*
X177654677Y-131051734D01*
X177651085Y-131128952D01*
X177642631Y-131186945D01*
X177627772Y-131231473D01*
X177604965Y-131268299D01*
X177572665Y-131303185D01*
X177572121Y-131303702D01*
X177532576Y-131336125D01*
X177491500Y-131362834D01*
X177476316Y-131369748D01*
X177426177Y-131380538D01*
X177356000Y-131381239D01*
X177310113Y-131376901D01*
X177242947Y-131357904D01*
X177186490Y-131320474D01*
X177132168Y-131259966D01*
X177093069Y-131208683D01*
X177093069Y-130937233D01*
X177093069Y-130665782D01*
X177136922Y-130573248D01*
X177147772Y-130551621D01*
X177217575Y-130448783D01*
X177307790Y-130362161D01*
X177413196Y-130296974D01*
X177505730Y-130253121D01*
X177863129Y-130248690D01*
X178220528Y-130244259D01*
X178228604Y-130166011D01*
X178249343Y-130069797D01*
X178296358Y-129965441D01*
X178364863Y-129870314D01*
X178451165Y-129789425D01*
X178551572Y-129727786D01*
X178644106Y-129683933D01*
X178915556Y-129683933D01*
X179187007Y-129683933D01*
X179238290Y-129723032D01*
G37*
G36*
X185914575Y-124561250D02*
G01*
X185970951Y-124562657D01*
X186009143Y-124568113D01*
X186038548Y-124579910D01*
X186068563Y-124600343D01*
X186083352Y-124611786D01*
X186123020Y-124646023D01*
X186151088Y-124679860D01*
X186169710Y-124719067D01*
X186181041Y-124769413D01*
X186187239Y-124836668D01*
X186190457Y-124926602D01*
X186195071Y-125121203D01*
X186389672Y-125125817D01*
X186448558Y-125127393D01*
X186511411Y-125130111D01*
X186555411Y-125134196D01*
X186586183Y-125140527D01*
X186609355Y-125149982D01*
X186630553Y-125163441D01*
X186694215Y-125221495D01*
X186741116Y-125298132D01*
X186762104Y-125385848D01*
X186756553Y-125483059D01*
X186756308Y-125484315D01*
X186736269Y-125533441D01*
X186698971Y-125586739D01*
X186651956Y-125635074D01*
X186602765Y-125669315D01*
X186582197Y-125677768D01*
X186555286Y-125683987D01*
X186518126Y-125687943D01*
X186466170Y-125689935D01*
X186394871Y-125690261D01*
X186299680Y-125689220D01*
X186275226Y-125688851D01*
X186189827Y-125687325D01*
X186126300Y-125685264D01*
X186079337Y-125681943D01*
X186043634Y-125676635D01*
X186013883Y-125668615D01*
X185984777Y-125657158D01*
X185951012Y-125641536D01*
X185929384Y-125630687D01*
X185826546Y-125560884D01*
X185739924Y-125470669D01*
X185674737Y-125365262D01*
X185630884Y-125272729D01*
X185630884Y-125002364D01*
X185630889Y-124978409D01*
X185631137Y-124889883D01*
X185632101Y-124824346D01*
X185634245Y-124777348D01*
X185638032Y-124744437D01*
X185643926Y-124721163D01*
X185652392Y-124703075D01*
X185663893Y-124685721D01*
X185670175Y-124677381D01*
X185707072Y-124636737D01*
X185748164Y-124600343D01*
X185751101Y-124598117D01*
X185780681Y-124578545D01*
X185810486Y-124567404D01*
X185849915Y-124562402D01*
X185908363Y-124561244D01*
X185914575Y-124561250D01*
G37*
G36*
X187052951Y-130822315D02*
G01*
X187109327Y-130823722D01*
X187147518Y-130829177D01*
X187176923Y-130840975D01*
X187206938Y-130861408D01*
X187221727Y-130872851D01*
X187261396Y-130907087D01*
X187289463Y-130940924D01*
X187308085Y-130980131D01*
X187319417Y-131030477D01*
X187325614Y-131097733D01*
X187328832Y-131187666D01*
X187333447Y-131382267D01*
X187528048Y-131386882D01*
X187586933Y-131388457D01*
X187649787Y-131391175D01*
X187693786Y-131395260D01*
X187724559Y-131401591D01*
X187747730Y-131411046D01*
X187768928Y-131424505D01*
X187832591Y-131482560D01*
X187879491Y-131559196D01*
X187900479Y-131646913D01*
X187894928Y-131744123D01*
X187894684Y-131745380D01*
X187874645Y-131794505D01*
X187837347Y-131847803D01*
X187790332Y-131896139D01*
X187741141Y-131930379D01*
X187720573Y-131938833D01*
X187693661Y-131945052D01*
X187656501Y-131949008D01*
X187604546Y-131951000D01*
X187533246Y-131951326D01*
X187438055Y-131950285D01*
X187413601Y-131949916D01*
X187328203Y-131948390D01*
X187264675Y-131946329D01*
X187217713Y-131943007D01*
X187182009Y-131937699D01*
X187152258Y-131929680D01*
X187123153Y-131918222D01*
X187089387Y-131902601D01*
X187067760Y-131891751D01*
X186964922Y-131821948D01*
X186878300Y-131731733D01*
X186813113Y-131626327D01*
X186769260Y-131533793D01*
X186769260Y-131263429D01*
X186769264Y-131239474D01*
X186769513Y-131150947D01*
X186770477Y-131085410D01*
X186772620Y-131038412D01*
X186776407Y-131005501D01*
X186782301Y-130982227D01*
X186790767Y-130964139D01*
X186802269Y-130946786D01*
X186808550Y-130938446D01*
X186845448Y-130897801D01*
X186886539Y-130861408D01*
X186889476Y-130859181D01*
X186919056Y-130839609D01*
X186948862Y-130828469D01*
X186988290Y-130823466D01*
X187046739Y-130822308D01*
X187052951Y-130822315D01*
G37*
G36*
X189895036Y-130253124D02*
G01*
X189971679Y-130258381D01*
X190030494Y-130276684D01*
X190080584Y-130312513D01*
X190131057Y-130370343D01*
X190133268Y-130373249D01*
X190148344Y-130394753D01*
X190158810Y-130416292D01*
X190165676Y-130443551D01*
X190169949Y-130482214D01*
X190172639Y-130537965D01*
X190174756Y-130616488D01*
X190179356Y-130811427D01*
X190257435Y-130819486D01*
X190353739Y-130840276D01*
X190457998Y-130887311D01*
X190553056Y-130955816D01*
X190633893Y-131042091D01*
X190695490Y-131142436D01*
X190708250Y-131169889D01*
X190721089Y-131201347D01*
X190730035Y-131232395D01*
X190735952Y-131268807D01*
X190739702Y-131316357D01*
X190742149Y-131380816D01*
X190744155Y-131467959D01*
X190744971Y-131517666D01*
X190745396Y-131596527D01*
X190744720Y-131664995D01*
X190743023Y-131717051D01*
X190740387Y-131746680D01*
X190739578Y-131750505D01*
X190718828Y-131798115D01*
X190681504Y-131849980D01*
X190635092Y-131897120D01*
X190587079Y-131930556D01*
X190571022Y-131937630D01*
X190518608Y-131949157D01*
X190447316Y-131950180D01*
X190400709Y-131945856D01*
X190333940Y-131926957D01*
X190277720Y-131889625D01*
X190223485Y-131829232D01*
X190221273Y-131826325D01*
X190206197Y-131804822D01*
X190195731Y-131783283D01*
X190188866Y-131756024D01*
X190184593Y-131717361D01*
X190181902Y-131661610D01*
X190179786Y-131583087D01*
X190175185Y-131388148D01*
X190097106Y-131380089D01*
X190000803Y-131359299D01*
X189896543Y-131312264D01*
X189801485Y-131243759D01*
X189720648Y-131157484D01*
X189659051Y-131057139D01*
X189615198Y-130964605D01*
X189615198Y-130693155D01*
X189615198Y-130421704D01*
X189654297Y-130370421D01*
X189655734Y-130368542D01*
X189706037Y-130311334D01*
X189756233Y-130276010D01*
X189815415Y-130258097D01*
X189892677Y-130253121D01*
X189895036Y-130253124D01*
G37*
G36*
X183633987Y-132529875D02*
G01*
X183710638Y-132535136D01*
X183769457Y-132553449D01*
X183819542Y-132589291D01*
X183869992Y-132647136D01*
X183909092Y-132698383D01*
X183913317Y-133339841D01*
X183913876Y-133439803D01*
X183914291Y-133568482D01*
X183914333Y-133687316D01*
X183914019Y-133793203D01*
X183913367Y-133883040D01*
X183912393Y-133953725D01*
X183911115Y-134002156D01*
X183909550Y-134025231D01*
X183908259Y-134031082D01*
X183887092Y-134077617D01*
X183849851Y-134128397D01*
X183803956Y-134174576D01*
X183756827Y-134207307D01*
X183740770Y-134214381D01*
X183688356Y-134225907D01*
X183617064Y-134226931D01*
X183570457Y-134222607D01*
X183503688Y-134203708D01*
X183447468Y-134166376D01*
X183393233Y-134105982D01*
X183390727Y-134102687D01*
X183375764Y-134081279D01*
X183365376Y-134059744D01*
X183358561Y-134032415D01*
X183354314Y-133993627D01*
X183351635Y-133937715D01*
X183349519Y-133859012D01*
X183344905Y-133663246D01*
X183150303Y-133658632D01*
X183120028Y-133657834D01*
X183037647Y-133653933D01*
X182976179Y-133646393D01*
X182929854Y-133633060D01*
X182892903Y-133611776D01*
X182859556Y-133580387D01*
X182824045Y-133536738D01*
X182822712Y-133534984D01*
X182802688Y-133505030D01*
X182791275Y-133475153D01*
X182786139Y-133435858D01*
X182784946Y-133377646D01*
X182784962Y-133372102D01*
X182790465Y-133296206D01*
X182808882Y-133237948D01*
X182844641Y-133188281D01*
X182902168Y-133138158D01*
X182905463Y-133135652D01*
X182926872Y-133120690D01*
X182948407Y-133110302D01*
X182975736Y-133103486D01*
X183014524Y-133099240D01*
X183070436Y-133096561D01*
X183149139Y-133094445D01*
X183344905Y-133089830D01*
X183349519Y-132894064D01*
X183349817Y-132881516D01*
X183351952Y-132806330D01*
X183354790Y-132753144D01*
X183359334Y-132716294D01*
X183366587Y-132690112D01*
X183377552Y-132668934D01*
X183393233Y-132647094D01*
X183394654Y-132645238D01*
X183444998Y-132588049D01*
X183495203Y-132552743D01*
X183554372Y-132534843D01*
X183631613Y-132529871D01*
X183633987Y-132529875D01*
G37*
G36*
X184772360Y-135375813D02*
G01*
X184849009Y-135381073D01*
X184907827Y-135399385D01*
X184957913Y-135435224D01*
X185008368Y-135493067D01*
X185047467Y-135544305D01*
X185051561Y-136025151D01*
X185055655Y-136505997D01*
X185536501Y-136510091D01*
X186017347Y-136514185D01*
X186068586Y-136553284D01*
X186070452Y-136554712D01*
X186127649Y-136605039D01*
X186162963Y-136655240D01*
X186180868Y-136714415D01*
X186185842Y-136791664D01*
X186185839Y-136794041D01*
X186180577Y-136870692D01*
X186162263Y-136929511D01*
X186126420Y-136979596D01*
X186068574Y-137030044D01*
X186017323Y-137069143D01*
X185251359Y-137073059D01*
X184485394Y-137076974D01*
X184485394Y-137255894D01*
X184484912Y-137313392D01*
X184481294Y-137390412D01*
X184472824Y-137448257D01*
X184457963Y-137492678D01*
X184435173Y-137529425D01*
X184402917Y-137564249D01*
X184402373Y-137564767D01*
X184362828Y-137597189D01*
X184321753Y-137623898D01*
X184306568Y-137630812D01*
X184256429Y-137641603D01*
X184186252Y-137642303D01*
X184140365Y-137637966D01*
X184073229Y-137618983D01*
X184016774Y-137581579D01*
X183962420Y-137521108D01*
X183959543Y-137517322D01*
X183944723Y-137496033D01*
X183934434Y-137474499D01*
X183927681Y-137447080D01*
X183923469Y-137408132D01*
X183920803Y-137352013D01*
X183918688Y-137273081D01*
X183914055Y-137076258D01*
X183631613Y-137076258D01*
X183349170Y-137076258D01*
X183344537Y-137273081D01*
X183344192Y-137287568D01*
X183342056Y-137362445D01*
X183339208Y-137415417D01*
X183334654Y-137452127D01*
X183327399Y-137478217D01*
X183316447Y-137499330D01*
X183300805Y-137521108D01*
X183297483Y-137525432D01*
X183247654Y-137581467D01*
X183197714Y-137616010D01*
X183138618Y-137633489D01*
X183061317Y-137638331D01*
X183057638Y-137638329D01*
X183000655Y-137636986D01*
X182962090Y-137631579D01*
X182932446Y-137619772D01*
X182902225Y-137599232D01*
X182888246Y-137588425D01*
X182848284Y-137554051D01*
X182820003Y-137520168D01*
X182801236Y-137480989D01*
X182789816Y-137430727D01*
X182783575Y-137363593D01*
X182780346Y-137273799D01*
X182775746Y-137080024D01*
X182697667Y-137071966D01*
X182601363Y-137051176D01*
X182497103Y-137004141D01*
X182402046Y-136935635D01*
X182321209Y-136849360D01*
X182259611Y-136749016D01*
X182215758Y-136656482D01*
X182215758Y-136386118D01*
X182215763Y-136362163D01*
X182216011Y-136273636D01*
X182216975Y-136208099D01*
X182219119Y-136161101D01*
X182222906Y-136128190D01*
X182228800Y-136104916D01*
X182237266Y-136086828D01*
X182248767Y-136069475D01*
X182255049Y-136061135D01*
X182291946Y-136020491D01*
X182333038Y-135984097D01*
X182334792Y-135982764D01*
X182364746Y-135962740D01*
X182394622Y-135951327D01*
X182433918Y-135946191D01*
X182492130Y-135944998D01*
X182497673Y-135945014D01*
X182573569Y-135950517D01*
X182631827Y-135968934D01*
X182681494Y-136004692D01*
X182731617Y-136062220D01*
X182734494Y-136066006D01*
X182749314Y-136087296D01*
X182759603Y-136108829D01*
X182766356Y-136136249D01*
X182770568Y-136175196D01*
X182773234Y-136231315D01*
X182775349Y-136310248D01*
X182779982Y-136507070D01*
X183632150Y-136507070D01*
X184484317Y-136507070D01*
X184488413Y-136025688D01*
X184492509Y-135544305D01*
X184531608Y-135493067D01*
X184533036Y-135491201D01*
X184583362Y-135434003D01*
X184633563Y-135398689D01*
X184692738Y-135380784D01*
X184769988Y-135375810D01*
X184772360Y-135375813D01*
G37*
G36*
X184158152Y-128020223D02*
G01*
X184247940Y-128073910D01*
X184335967Y-128152851D01*
X184406636Y-128246572D01*
X184456248Y-128350054D01*
X184481102Y-128458279D01*
X184489160Y-128536358D01*
X184684100Y-128540958D01*
X184695127Y-128541220D01*
X184770557Y-128543353D01*
X184823910Y-128546183D01*
X184860872Y-128550719D01*
X184887126Y-128557971D01*
X184908355Y-128568947D01*
X184930244Y-128584657D01*
X184932100Y-128586078D01*
X184989289Y-128636423D01*
X185024595Y-128686627D01*
X185042495Y-128745797D01*
X185047467Y-128823037D01*
X185047464Y-128825409D01*
X185042203Y-128902058D01*
X185023892Y-128960876D01*
X184988053Y-129010962D01*
X184930210Y-129061417D01*
X184878972Y-129100516D01*
X184397589Y-129104612D01*
X183916206Y-129108708D01*
X183916206Y-129390772D01*
X183916206Y-129672837D01*
X183995328Y-129681003D01*
X184091085Y-129701482D01*
X184195935Y-129748390D01*
X184291422Y-129816893D01*
X184372576Y-129903336D01*
X184434426Y-130004060D01*
X184478279Y-130096594D01*
X184482710Y-130453993D01*
X184487141Y-130811392D01*
X184565389Y-130819468D01*
X184661603Y-130840207D01*
X184765959Y-130887222D01*
X184861086Y-130955727D01*
X184941975Y-131042029D01*
X185003614Y-131142436D01*
X185047467Y-131234970D01*
X185051819Y-131754353D01*
X185052576Y-131869553D01*
X185052897Y-131983130D01*
X185052757Y-132085842D01*
X185052178Y-132174170D01*
X185051185Y-132244596D01*
X185049802Y-132293601D01*
X185048051Y-132317668D01*
X185046784Y-132323368D01*
X185025569Y-132369949D01*
X184988272Y-132420782D01*
X184942336Y-132467002D01*
X184895202Y-132499744D01*
X184879145Y-132506818D01*
X184826731Y-132518344D01*
X184755440Y-132519368D01*
X184708832Y-132515044D01*
X184642051Y-132496139D01*
X184585829Y-132458795D01*
X184531608Y-132398385D01*
X184492509Y-132347146D01*
X184488413Y-131865764D01*
X184484317Y-131384381D01*
X183916206Y-131384381D01*
X183348096Y-131384381D01*
X183344000Y-131864633D01*
X183342880Y-131991521D01*
X183341746Y-132096237D01*
X183340406Y-132178632D01*
X183338642Y-132241811D01*
X183336234Y-132288878D01*
X183332965Y-132322936D01*
X183328615Y-132347090D01*
X183322966Y-132364443D01*
X183315799Y-132378100D01*
X183306895Y-132391165D01*
X183300613Y-132399505D01*
X183263716Y-132440149D01*
X183222624Y-132476543D01*
X183219687Y-132478769D01*
X183190108Y-132498341D01*
X183160302Y-132509482D01*
X183120873Y-132514484D01*
X183062425Y-132515642D01*
X183056213Y-132515635D01*
X182999837Y-132514229D01*
X182961645Y-132508773D01*
X182932240Y-132496976D01*
X182902225Y-132476543D01*
X182893134Y-132469308D01*
X182851599Y-132430488D01*
X182817955Y-132391165D01*
X182809323Y-132378534D01*
X182802093Y-132364935D01*
X182796392Y-132347742D01*
X182792000Y-132323848D01*
X182788698Y-132290144D01*
X182786267Y-132243523D01*
X182784486Y-132180876D01*
X182783136Y-132099096D01*
X182781999Y-131995073D01*
X182780854Y-131865700D01*
X182776761Y-131386514D01*
X182581638Y-131381890D01*
X182550254Y-131381061D01*
X182468059Y-131377143D01*
X182406725Y-131369585D01*
X182360496Y-131356238D01*
X182323614Y-131334955D01*
X182290320Y-131303587D01*
X182254857Y-131259987D01*
X182252631Y-131257050D01*
X182233059Y-131227470D01*
X182221918Y-131197664D01*
X182216916Y-131158236D01*
X182215758Y-131099787D01*
X182215765Y-131093575D01*
X182217171Y-131037199D01*
X182222627Y-130999008D01*
X182234424Y-130969603D01*
X182254857Y-130939588D01*
X182265664Y-130925609D01*
X182300039Y-130885646D01*
X182333921Y-130857366D01*
X182373100Y-130838599D01*
X182423362Y-130827179D01*
X182490496Y-130820938D01*
X182580290Y-130817708D01*
X182774065Y-130813108D01*
X182782123Y-130735029D01*
X182790378Y-130684124D01*
X182827080Y-130577741D01*
X182886276Y-130479651D01*
X182963962Y-130393853D01*
X183056131Y-130324345D01*
X183158778Y-130275124D01*
X183267897Y-130250190D01*
X183347019Y-130242024D01*
X183347019Y-129391309D01*
X183347019Y-128540594D01*
X183150196Y-128535961D01*
X183135709Y-128535617D01*
X183060832Y-128533480D01*
X183007860Y-128530632D01*
X182971150Y-128526078D01*
X182945059Y-128518823D01*
X182923947Y-128507871D01*
X182902168Y-128492229D01*
X182900313Y-128490808D01*
X182843123Y-128440463D01*
X182807818Y-128390259D01*
X182789918Y-128331089D01*
X182784946Y-128253849D01*
X182784949Y-128251466D01*
X182790213Y-128174811D01*
X182808531Y-128115990D01*
X182844379Y-128065908D01*
X182902232Y-128015469D01*
X182953501Y-127976370D01*
X183509559Y-127976370D01*
X184065618Y-127976370D01*
X184158152Y-128020223D01*
G37*
G36*
X184776200Y-123992063D02*
G01*
X184832576Y-123993470D01*
X184870768Y-123998925D01*
X184900173Y-124010722D01*
X184930187Y-124031155D01*
X184939279Y-124038390D01*
X184980814Y-124077210D01*
X185014458Y-124116534D01*
X185047467Y-124162813D01*
X185047467Y-125286958D01*
X185047467Y-126411104D01*
X185003614Y-126503638D01*
X184950501Y-126592686D01*
X184871450Y-126681080D01*
X184777456Y-126751984D01*
X184673488Y-126801741D01*
X184564516Y-126826695D01*
X184485394Y-126834861D01*
X184485394Y-127012149D01*
X184484965Y-127066170D01*
X184481426Y-127143806D01*
X184473008Y-127202110D01*
X184458154Y-127246865D01*
X184435309Y-127283858D01*
X184402917Y-127318871D01*
X184402373Y-127319388D01*
X184362828Y-127351811D01*
X184321753Y-127378520D01*
X184306568Y-127385434D01*
X184256429Y-127396225D01*
X184186252Y-127396925D01*
X184140365Y-127392587D01*
X184073199Y-127373591D01*
X184016742Y-127336160D01*
X183962420Y-127275652D01*
X183923321Y-127224369D01*
X183923321Y-126952919D01*
X183923321Y-126681468D01*
X183967174Y-126588934D01*
X184020287Y-126499886D01*
X184099338Y-126411492D01*
X184193332Y-126340589D01*
X184297300Y-126290831D01*
X184406272Y-126265877D01*
X184485394Y-126257711D01*
X184485394Y-125975108D01*
X184485394Y-125692505D01*
X184202791Y-125692505D01*
X183920188Y-125692505D01*
X183912022Y-125771626D01*
X183903845Y-125822293D01*
X183867229Y-125929056D01*
X183808125Y-126027452D01*
X183730525Y-126113486D01*
X183638422Y-126183162D01*
X183535807Y-126232483D01*
X183426672Y-126257453D01*
X183348082Y-126265564D01*
X183343993Y-126745011D01*
X183339904Y-127224457D01*
X183300805Y-127275696D01*
X183297477Y-127280029D01*
X183247666Y-127336073D01*
X183197730Y-127370624D01*
X183138627Y-127388108D01*
X183061317Y-127392953D01*
X183057638Y-127392950D01*
X183000655Y-127391608D01*
X182962090Y-127386201D01*
X182932446Y-127374394D01*
X182902225Y-127353854D01*
X182893134Y-127346619D01*
X182851599Y-127307799D01*
X182817955Y-127268476D01*
X182809278Y-127255774D01*
X182802061Y-127242169D01*
X182796370Y-127224956D01*
X182791985Y-127201026D01*
X182788689Y-127167275D01*
X182786261Y-127120597D01*
X182784482Y-127057884D01*
X182783134Y-126976031D01*
X182781997Y-126871932D01*
X182780852Y-126742481D01*
X182776758Y-126262766D01*
X182297042Y-126258671D01*
X182170957Y-126257559D01*
X182066170Y-126256424D01*
X181983719Y-126255085D01*
X181920497Y-126253322D01*
X181873399Y-126250916D01*
X181839319Y-126247647D01*
X181815149Y-126243297D01*
X181797785Y-126237647D01*
X181784120Y-126230477D01*
X181771048Y-126221568D01*
X181762708Y-126215287D01*
X181722064Y-126178389D01*
X181685670Y-126137298D01*
X181683443Y-126134361D01*
X181663871Y-126104781D01*
X181652731Y-126074975D01*
X181647728Y-126035547D01*
X181646571Y-125977098D01*
X181646577Y-125970886D01*
X181647984Y-125914510D01*
X181653439Y-125876319D01*
X181665237Y-125846914D01*
X181685670Y-125816899D01*
X181692904Y-125807808D01*
X181731724Y-125766272D01*
X181771048Y-125732628D01*
X181817327Y-125699619D01*
X182582173Y-125695704D01*
X183347019Y-125691788D01*
X183347019Y-125408091D01*
X183347019Y-125124394D01*
X182866767Y-125120298D01*
X182739879Y-125119178D01*
X182635163Y-125118044D01*
X182552768Y-125116704D01*
X182489589Y-125114940D01*
X182442522Y-125112533D01*
X182408464Y-125109263D01*
X182384310Y-125104914D01*
X182366957Y-125099264D01*
X182353300Y-125092097D01*
X182340235Y-125083193D01*
X182331895Y-125076911D01*
X182291251Y-125040014D01*
X182254857Y-124998923D01*
X182253524Y-124997169D01*
X182233500Y-124967214D01*
X182222088Y-124937338D01*
X182216952Y-124898043D01*
X182215758Y-124839831D01*
X182215775Y-124834264D01*
X182221285Y-124758356D01*
X182239716Y-124700091D01*
X182275494Y-124650432D01*
X182333045Y-124600343D01*
X182384313Y-124561244D01*
X182940372Y-124561244D01*
X183496430Y-124561244D01*
X183588964Y-124605097D01*
X183678013Y-124658210D01*
X183766406Y-124737261D01*
X183837310Y-124831255D01*
X183887067Y-124935223D01*
X183912022Y-125044195D01*
X183920188Y-125123317D01*
X184202252Y-125123317D01*
X184484317Y-125123317D01*
X184488413Y-124643065D01*
X184489533Y-124516178D01*
X184490667Y-124411461D01*
X184492007Y-124329066D01*
X184493771Y-124265887D01*
X184496178Y-124218820D01*
X184499448Y-124184762D01*
X184503797Y-124160609D01*
X184509447Y-124143255D01*
X184516614Y-124129598D01*
X184525518Y-124116534D01*
X184531799Y-124108193D01*
X184568697Y-124067549D01*
X184609788Y-124031155D01*
X184612725Y-124028929D01*
X184642305Y-124009357D01*
X184672111Y-123998216D01*
X184711539Y-123993214D01*
X184769988Y-123992056D01*
X184776200Y-123992063D01*
G37*
G36*
X181068415Y-125526375D02*
G01*
X181068974Y-125689316D01*
X181068945Y-125828688D01*
X181068194Y-125946975D01*
X181066589Y-126046661D01*
X181063997Y-126130231D01*
X181060285Y-126200168D01*
X181055320Y-126258957D01*
X181048969Y-126309082D01*
X181041099Y-126353027D01*
X181031578Y-126393276D01*
X181020272Y-126432313D01*
X181007048Y-126472623D01*
X180953915Y-126605866D01*
X180860775Y-126775855D01*
X180746080Y-126929278D01*
X180611782Y-127064489D01*
X180459838Y-127179841D01*
X180292200Y-127273688D01*
X180110824Y-127344385D01*
X179917663Y-127390284D01*
X179907325Y-127391020D01*
X179869669Y-127392148D01*
X179808013Y-127393250D01*
X179725055Y-127394302D01*
X179623495Y-127395279D01*
X179506033Y-127396157D01*
X179375367Y-127396910D01*
X179234199Y-127397513D01*
X179085226Y-127397943D01*
X178970222Y-127398170D01*
X178814079Y-127398340D01*
X178682156Y-127398229D01*
X178571880Y-127397767D01*
X178480677Y-127396887D01*
X178405972Y-127395518D01*
X178345191Y-127393593D01*
X178295759Y-127391043D01*
X178255103Y-127387798D01*
X178220647Y-127383790D01*
X178189819Y-127378950D01*
X178160044Y-127373209D01*
X178057040Y-127347528D01*
X177879933Y-127281532D01*
X177714931Y-127191935D01*
X177564210Y-127080974D01*
X177429942Y-126950885D01*
X177314304Y-126803905D01*
X177219469Y-126642270D01*
X177147613Y-126468216D01*
X177100909Y-126283981D01*
X177100068Y-126278329D01*
X177096857Y-126238400D01*
X177094054Y-126174116D01*
X177091659Y-126088780D01*
X177089671Y-125985691D01*
X177088090Y-125868150D01*
X177086917Y-125739457D01*
X177086151Y-125602914D01*
X177085793Y-125461821D01*
X177085809Y-125415026D01*
X177690716Y-125415026D01*
X177690716Y-126183429D01*
X177723900Y-126275379D01*
X177736548Y-126308992D01*
X177782895Y-126408766D01*
X177839439Y-126493950D01*
X177912919Y-126575233D01*
X177978415Y-126632333D01*
X178100567Y-126710328D01*
X178238559Y-126768156D01*
X178254063Y-126772762D01*
X178276520Y-126777872D01*
X178304127Y-126782126D01*
X178339475Y-126785619D01*
X178385154Y-126788445D01*
X178443752Y-126790699D01*
X178517861Y-126792475D01*
X178610069Y-126793868D01*
X178722967Y-126794971D01*
X178859145Y-126795880D01*
X179021192Y-126796689D01*
X179130957Y-126797134D01*
X179290464Y-126797501D01*
X179425641Y-126797297D01*
X179539056Y-126796392D01*
X179633276Y-126794653D01*
X179710871Y-126791950D01*
X179774408Y-126788152D01*
X179826454Y-126783127D01*
X179869580Y-126776743D01*
X179906351Y-126768870D01*
X179939338Y-126759377D01*
X179971106Y-126748131D01*
X180058654Y-126709435D01*
X180181928Y-126631393D01*
X180285183Y-126533153D01*
X180368591Y-126414540D01*
X180432323Y-126275379D01*
X180465506Y-126183429D01*
X180465506Y-125415026D01*
X180465488Y-125315461D01*
X180465338Y-125161515D01*
X180464972Y-125032118D01*
X180464314Y-124924779D01*
X180463287Y-124837008D01*
X180461815Y-124766314D01*
X180459822Y-124710204D01*
X180457231Y-124666189D01*
X180453967Y-124631776D01*
X180449953Y-124604475D01*
X180445113Y-124581795D01*
X180439371Y-124561244D01*
X180427780Y-124526298D01*
X180366185Y-124394857D01*
X180281956Y-124279514D01*
X180176802Y-124181928D01*
X180052430Y-124103763D01*
X179910548Y-124046680D01*
X179902511Y-124044291D01*
X179881154Y-124038837D01*
X179856682Y-124034281D01*
X179826562Y-124030542D01*
X179788259Y-124027542D01*
X179739238Y-124025200D01*
X179676965Y-124023436D01*
X179598905Y-124022173D01*
X179502525Y-124021328D01*
X179385289Y-124020824D01*
X179244662Y-124020579D01*
X179078111Y-124020516D01*
X179009877Y-124020524D01*
X178853744Y-124020649D01*
X178722546Y-124020985D01*
X178613749Y-124021613D01*
X178524818Y-124022611D01*
X178453220Y-124024061D01*
X178396420Y-124026040D01*
X178351883Y-124028630D01*
X178317074Y-124031909D01*
X178289459Y-124035957D01*
X178266504Y-124040854D01*
X178245674Y-124046680D01*
X178208896Y-124058799D01*
X178071203Y-124121273D01*
X177951445Y-124204416D01*
X177851328Y-124306567D01*
X177772561Y-124426063D01*
X177716852Y-124561244D01*
X177713467Y-124572829D01*
X177708248Y-124594287D01*
X177703887Y-124619292D01*
X177700310Y-124650336D01*
X177697438Y-124689911D01*
X177695197Y-124740506D01*
X177693510Y-124804613D01*
X177692301Y-124884724D01*
X177691493Y-124983330D01*
X177691011Y-125102921D01*
X177690777Y-125245989D01*
X177690716Y-125415026D01*
X177085809Y-125415026D01*
X177085843Y-125319479D01*
X177086300Y-125179188D01*
X177087164Y-125044249D01*
X177088437Y-124917962D01*
X177090116Y-124803629D01*
X177092203Y-124704549D01*
X177094698Y-124624024D01*
X177097600Y-124565355D01*
X177100909Y-124531841D01*
X177115128Y-124463979D01*
X177161317Y-124311445D01*
X177224798Y-124162813D01*
X177264069Y-124089810D01*
X177370623Y-123933474D01*
X177498207Y-123793507D01*
X177643882Y-123672173D01*
X177804706Y-123571736D01*
X177977740Y-123494461D01*
X178160044Y-123442612D01*
X178175109Y-123439601D01*
X178205494Y-123434283D01*
X178238455Y-123429825D01*
X178276581Y-123426154D01*
X178322460Y-123423194D01*
X178378680Y-123420871D01*
X178447830Y-123419111D01*
X178532497Y-123417838D01*
X178635271Y-123416978D01*
X178758739Y-123416456D01*
X178905490Y-123416197D01*
X179078111Y-123416128D01*
X179167992Y-123416144D01*
X179327329Y-123416298D01*
X179462091Y-123416680D01*
X179574867Y-123417362D01*
X179668246Y-123418419D01*
X179744815Y-123419927D01*
X179807164Y-123421960D01*
X179857879Y-123424593D01*
X179899550Y-123427900D01*
X179934765Y-123431955D01*
X179966112Y-123436835D01*
X179996179Y-123442612D01*
X180172390Y-123492247D01*
X180347790Y-123569844D01*
X180512133Y-123672373D01*
X180662547Y-123798300D01*
X180751641Y-123892243D01*
X180863197Y-124041961D01*
X180953308Y-124208128D01*
X181023642Y-124393500D01*
X181062586Y-124518555D01*
X181067439Y-125343877D01*
X181067820Y-125415026D01*
X181068415Y-125526375D01*
G37*
G36*
X191313794Y-125526375D02*
G01*
X191314352Y-125689316D01*
X191314323Y-125828688D01*
X191313572Y-125946975D01*
X191311967Y-126046661D01*
X191309375Y-126130231D01*
X191305663Y-126200168D01*
X191300698Y-126258957D01*
X191294347Y-126309082D01*
X191286477Y-126353027D01*
X191276956Y-126393276D01*
X191265650Y-126432313D01*
X191252427Y-126472623D01*
X191199293Y-126605866D01*
X191106154Y-126775855D01*
X190991458Y-126929278D01*
X190857161Y-127064489D01*
X190705216Y-127179841D01*
X190537578Y-127273688D01*
X190356202Y-127344385D01*
X190163041Y-127390284D01*
X190152703Y-127391020D01*
X190115048Y-127392148D01*
X190053391Y-127393250D01*
X189970433Y-127394302D01*
X189868873Y-127395279D01*
X189751411Y-127396157D01*
X189620745Y-127396910D01*
X189479577Y-127397513D01*
X189330604Y-127397943D01*
X189215600Y-127398170D01*
X189059457Y-127398340D01*
X188927534Y-127398229D01*
X188817259Y-127397767D01*
X188726055Y-127396887D01*
X188651350Y-127395518D01*
X188590569Y-127393593D01*
X188541137Y-127391043D01*
X188500481Y-127387798D01*
X188466026Y-127383790D01*
X188435197Y-127378950D01*
X188405422Y-127373209D01*
X188302418Y-127347528D01*
X188125311Y-127281532D01*
X187960310Y-127191935D01*
X187809588Y-127080974D01*
X187675320Y-126950885D01*
X187559682Y-126803905D01*
X187464847Y-126642270D01*
X187392991Y-126468216D01*
X187346288Y-126283981D01*
X187345446Y-126278329D01*
X187342235Y-126238400D01*
X187339432Y-126174116D01*
X187337037Y-126088780D01*
X187335049Y-125985691D01*
X187333468Y-125868150D01*
X187332295Y-125739457D01*
X187331530Y-125602914D01*
X187331172Y-125461821D01*
X187331188Y-125415026D01*
X187936094Y-125415026D01*
X187936094Y-126183429D01*
X187969278Y-126275379D01*
X187981926Y-126308992D01*
X188028273Y-126408766D01*
X188084817Y-126493950D01*
X188158297Y-126575233D01*
X188223794Y-126632333D01*
X188345945Y-126710328D01*
X188483937Y-126768156D01*
X188499441Y-126772762D01*
X188521898Y-126777872D01*
X188549506Y-126782126D01*
X188584854Y-126785619D01*
X188630532Y-126788445D01*
X188689130Y-126790699D01*
X188763239Y-126792475D01*
X188855447Y-126793868D01*
X188968345Y-126794971D01*
X189104523Y-126795880D01*
X189266571Y-126796689D01*
X189376335Y-126797134D01*
X189535843Y-126797501D01*
X189671019Y-126797297D01*
X189784434Y-126796392D01*
X189878655Y-126794653D01*
X189956249Y-126791950D01*
X190019786Y-126788152D01*
X190071833Y-126783127D01*
X190114958Y-126776743D01*
X190151730Y-126768870D01*
X190184716Y-126759377D01*
X190216485Y-126748131D01*
X190304033Y-126709435D01*
X190427306Y-126631393D01*
X190530561Y-126533153D01*
X190613969Y-126414540D01*
X190677701Y-126275379D01*
X190710884Y-126183429D01*
X190710884Y-125415026D01*
X190710866Y-125315461D01*
X190710716Y-125161515D01*
X190710350Y-125032118D01*
X190709692Y-124924779D01*
X190708665Y-124837008D01*
X190707193Y-124766314D01*
X190705200Y-124710204D01*
X190702610Y-124666189D01*
X190699346Y-124631776D01*
X190695332Y-124604475D01*
X190690491Y-124581795D01*
X190684749Y-124561244D01*
X190673158Y-124526298D01*
X190611563Y-124394857D01*
X190527334Y-124279514D01*
X190422180Y-124181928D01*
X190297808Y-124103763D01*
X190155926Y-124046680D01*
X190147889Y-124044291D01*
X190126532Y-124038837D01*
X190102060Y-124034281D01*
X190071940Y-124030542D01*
X190033637Y-124027542D01*
X189984616Y-124025200D01*
X189922343Y-124023436D01*
X189844284Y-124022173D01*
X189747903Y-124021328D01*
X189630667Y-124020824D01*
X189490040Y-124020579D01*
X189323489Y-124020516D01*
X189255256Y-124020524D01*
X189099122Y-124020649D01*
X188967924Y-124020985D01*
X188859127Y-124021613D01*
X188770197Y-124022611D01*
X188698598Y-124024061D01*
X188641798Y-124026040D01*
X188597261Y-124028630D01*
X188562452Y-124031909D01*
X188534837Y-124035957D01*
X188511882Y-124040854D01*
X188491052Y-124046680D01*
X188454274Y-124058799D01*
X188316582Y-124121273D01*
X188196823Y-124204416D01*
X188096707Y-124306567D01*
X188017940Y-124426063D01*
X187962230Y-124561244D01*
X187958845Y-124572829D01*
X187953626Y-124594287D01*
X187949265Y-124619292D01*
X187945688Y-124650336D01*
X187942816Y-124689911D01*
X187940575Y-124740506D01*
X187938889Y-124804613D01*
X187937679Y-124884724D01*
X187936871Y-124983330D01*
X187936389Y-125102921D01*
X187936155Y-125245989D01*
X187936094Y-125415026D01*
X187331188Y-125415026D01*
X187331221Y-125319479D01*
X187331678Y-125179188D01*
X187332543Y-125044249D01*
X187333815Y-124917962D01*
X187335494Y-124803629D01*
X187337581Y-124704549D01*
X187340076Y-124624024D01*
X187342978Y-124565355D01*
X187346288Y-124531841D01*
X187360506Y-124463979D01*
X187406695Y-124311445D01*
X187470176Y-124162813D01*
X187509447Y-124089810D01*
X187616001Y-123933474D01*
X187743585Y-123793507D01*
X187889260Y-123672173D01*
X188050084Y-123571736D01*
X188223118Y-123494461D01*
X188405422Y-123442612D01*
X188420487Y-123439601D01*
X188450872Y-123434283D01*
X188483833Y-123429825D01*
X188521959Y-123426154D01*
X188567838Y-123423194D01*
X188624058Y-123420871D01*
X188693208Y-123419111D01*
X188777875Y-123417838D01*
X188880649Y-123416978D01*
X189004117Y-123416456D01*
X189150868Y-123416197D01*
X189323489Y-123416128D01*
X189413370Y-123416144D01*
X189572707Y-123416298D01*
X189707469Y-123416680D01*
X189820245Y-123417362D01*
X189913624Y-123418419D01*
X189990194Y-123419927D01*
X190052542Y-123421960D01*
X190103258Y-123424593D01*
X190144929Y-123427900D01*
X190180143Y-123431955D01*
X190211490Y-123436835D01*
X190241557Y-123442612D01*
X190417769Y-123492247D01*
X190593168Y-123569844D01*
X190757511Y-123672373D01*
X190907925Y-123798300D01*
X190997019Y-123892243D01*
X191108576Y-124041961D01*
X191198686Y-124208128D01*
X191269021Y-124393500D01*
X191307965Y-124518555D01*
X191312817Y-125343877D01*
X191313198Y-125415026D01*
X191313794Y-125526375D01*
G37*
G36*
X191313794Y-135771754D02*
G01*
X191314352Y-135934694D01*
X191314323Y-136074066D01*
X191313572Y-136192353D01*
X191311967Y-136292039D01*
X191309375Y-136375609D01*
X191305663Y-136445546D01*
X191300698Y-136504335D01*
X191294347Y-136554460D01*
X191286477Y-136598405D01*
X191276956Y-136638654D01*
X191265650Y-136677692D01*
X191252427Y-136718001D01*
X191199293Y-136851244D01*
X191106154Y-137021233D01*
X190991458Y-137174656D01*
X190857161Y-137309867D01*
X190705216Y-137425219D01*
X190537578Y-137519067D01*
X190356202Y-137589763D01*
X190163041Y-137635662D01*
X190152703Y-137636398D01*
X190115048Y-137637526D01*
X190053391Y-137638628D01*
X189970433Y-137639680D01*
X189868873Y-137640657D01*
X189751411Y-137641535D01*
X189620745Y-137642288D01*
X189479577Y-137642892D01*
X189330604Y-137643321D01*
X189215600Y-137643548D01*
X189059457Y-137643718D01*
X188927534Y-137643607D01*
X188817259Y-137643145D01*
X188726055Y-137642265D01*
X188651350Y-137640896D01*
X188590569Y-137638971D01*
X188541137Y-137636421D01*
X188500481Y-137633176D01*
X188466026Y-137629168D01*
X188435197Y-137624328D01*
X188405422Y-137618587D01*
X188302418Y-137592906D01*
X188125311Y-137526910D01*
X187960310Y-137437313D01*
X187809588Y-137326352D01*
X187675320Y-137196263D01*
X187559682Y-137049283D01*
X187464847Y-136887648D01*
X187392991Y-136713594D01*
X187346288Y-136529359D01*
X187345446Y-136523707D01*
X187342235Y-136483778D01*
X187339432Y-136419495D01*
X187337037Y-136334158D01*
X187335049Y-136231069D01*
X187333468Y-136113528D01*
X187332295Y-135984835D01*
X187331530Y-135848292D01*
X187331172Y-135707199D01*
X187331188Y-135660404D01*
X187936094Y-135660404D01*
X187936094Y-136428807D01*
X187969278Y-136520757D01*
X187981926Y-136554370D01*
X188028273Y-136654145D01*
X188084817Y-136739328D01*
X188158297Y-136820611D01*
X188223794Y-136877711D01*
X188345945Y-136955706D01*
X188483937Y-137013534D01*
X188499441Y-137018140D01*
X188521898Y-137023250D01*
X188549506Y-137027504D01*
X188584854Y-137030997D01*
X188630532Y-137033823D01*
X188689130Y-137036077D01*
X188763239Y-137037853D01*
X188855447Y-137039246D01*
X188968345Y-137040349D01*
X189104523Y-137041258D01*
X189266571Y-137042067D01*
X189376335Y-137042512D01*
X189535843Y-137042879D01*
X189671019Y-137042675D01*
X189784434Y-137041770D01*
X189878655Y-137040031D01*
X189956249Y-137037328D01*
X190019786Y-137033530D01*
X190071833Y-137028505D01*
X190114958Y-137022121D01*
X190151730Y-137014248D01*
X190184716Y-137004755D01*
X190216485Y-136993510D01*
X190304033Y-136954813D01*
X190427306Y-136876771D01*
X190530561Y-136778532D01*
X190613969Y-136659919D01*
X190677701Y-136520757D01*
X190710884Y-136428807D01*
X190710884Y-135660404D01*
X190710866Y-135560839D01*
X190710716Y-135406893D01*
X190710350Y-135277496D01*
X190709692Y-135170157D01*
X190708665Y-135082386D01*
X190707193Y-135011692D01*
X190705200Y-134955582D01*
X190702610Y-134911567D01*
X190699346Y-134877155D01*
X190695332Y-134849854D01*
X190690491Y-134827173D01*
X190684749Y-134806622D01*
X190673158Y-134771676D01*
X190611563Y-134640235D01*
X190527334Y-134524892D01*
X190422180Y-134427306D01*
X190297808Y-134349141D01*
X190155926Y-134292058D01*
X190147889Y-134289669D01*
X190126532Y-134284215D01*
X190102060Y-134279659D01*
X190071940Y-134275920D01*
X190033637Y-134272920D01*
X189984616Y-134270578D01*
X189922343Y-134268815D01*
X189844284Y-134267551D01*
X189747903Y-134266706D01*
X189630667Y-134266202D01*
X189490040Y-134265958D01*
X189323489Y-134265894D01*
X189255256Y-134265902D01*
X189099122Y-134266027D01*
X188967924Y-134266363D01*
X188859127Y-134266991D01*
X188770197Y-134267990D01*
X188698598Y-134269439D01*
X188641798Y-134271418D01*
X188597261Y-134274008D01*
X188562452Y-134277287D01*
X188534837Y-134281335D01*
X188511882Y-134286232D01*
X188491052Y-134292058D01*
X188454274Y-134304177D01*
X188316582Y-134366651D01*
X188196823Y-134449794D01*
X188096707Y-134551945D01*
X188017940Y-134671441D01*
X187962230Y-134806622D01*
X187958845Y-134818207D01*
X187953626Y-134839665D01*
X187949265Y-134864670D01*
X187945688Y-134895714D01*
X187942816Y-134935289D01*
X187940575Y-134985884D01*
X187938889Y-135049992D01*
X187937679Y-135130102D01*
X187936871Y-135228708D01*
X187936389Y-135348299D01*
X187936155Y-135491367D01*
X187936094Y-135660404D01*
X187331188Y-135660404D01*
X187331221Y-135564857D01*
X187331678Y-135424566D01*
X187332543Y-135289627D01*
X187333815Y-135163340D01*
X187335494Y-135049007D01*
X187337581Y-134949927D01*
X187340076Y-134869402D01*
X187342978Y-134810733D01*
X187346288Y-134777219D01*
X187360506Y-134709357D01*
X187406695Y-134556823D01*
X187470176Y-134408191D01*
X187509447Y-134335188D01*
X187616001Y-134178852D01*
X187743585Y-134038885D01*
X187889260Y-133917551D01*
X188050084Y-133817114D01*
X188223118Y-133739839D01*
X188405422Y-133687991D01*
X188420487Y-133684979D01*
X188450872Y-133679661D01*
X188483833Y-133675203D01*
X188521959Y-133671532D01*
X188567838Y-133668572D01*
X188624058Y-133666250D01*
X188693208Y-133664489D01*
X188777875Y-133663216D01*
X188880649Y-133662356D01*
X189004117Y-133661834D01*
X189150868Y-133661575D01*
X189323489Y-133661506D01*
X189413370Y-133661522D01*
X189572707Y-133661677D01*
X189707469Y-133662058D01*
X189820245Y-133662740D01*
X189913624Y-133663798D01*
X189990194Y-133665305D01*
X190052542Y-133667338D01*
X190103258Y-133669971D01*
X190144929Y-133673278D01*
X190180143Y-133677334D01*
X190211490Y-133682213D01*
X190241557Y-133687991D01*
X190417769Y-133737625D01*
X190593168Y-133815223D01*
X190757511Y-133917752D01*
X190907925Y-134043678D01*
X190997019Y-134137622D01*
X191108576Y-134287339D01*
X191198686Y-134453506D01*
X191269021Y-134638878D01*
X191307965Y-134763933D01*
X191312817Y-135589255D01*
X191313198Y-135660404D01*
X191313794Y-135771754D01*
G37*
G36*
X186479939Y-126837998D02*
G01*
X186556597Y-126843263D01*
X186615419Y-126861585D01*
X186665499Y-126897438D01*
X186715931Y-126955295D01*
X186755030Y-127006578D01*
X186755030Y-127278029D01*
X186755030Y-127549479D01*
X186711177Y-127642013D01*
X186658064Y-127731062D01*
X186579013Y-127819455D01*
X186485019Y-127890359D01*
X186381051Y-127940116D01*
X186272079Y-127965071D01*
X186192957Y-127973237D01*
X186192957Y-128254764D01*
X186192957Y-128536292D01*
X186388615Y-128540925D01*
X186421130Y-128541786D01*
X186503138Y-128545721D01*
X186564334Y-128553298D01*
X186610465Y-128566658D01*
X186647278Y-128587941D01*
X186680518Y-128619287D01*
X186715931Y-128662837D01*
X186718157Y-128665774D01*
X186737729Y-128695354D01*
X186748870Y-128725160D01*
X186753872Y-128764588D01*
X186755030Y-128823037D01*
X186755023Y-128829249D01*
X186753617Y-128885625D01*
X186748161Y-128923817D01*
X186736364Y-128953221D01*
X186715931Y-128983236D01*
X186703683Y-128999047D01*
X186669620Y-129038345D01*
X186635838Y-129066143D01*
X186596594Y-129084582D01*
X186546139Y-129095803D01*
X186478728Y-129101945D01*
X186388615Y-129105149D01*
X186192957Y-129109782D01*
X186192957Y-129392761D01*
X186192957Y-129675741D01*
X186673209Y-129679837D01*
X186800096Y-129680957D01*
X186904813Y-129682091D01*
X186987208Y-129683431D01*
X187050387Y-129685195D01*
X187097454Y-129687603D01*
X187131512Y-129690872D01*
X187155665Y-129695222D01*
X187173019Y-129700871D01*
X187186676Y-129708038D01*
X187199740Y-129716942D01*
X187208080Y-129723224D01*
X187248725Y-129760121D01*
X187285119Y-129801213D01*
X187287345Y-129804150D01*
X187306917Y-129833729D01*
X187318057Y-129863535D01*
X187323060Y-129902964D01*
X187324218Y-129961412D01*
X187324211Y-129967624D01*
X187322804Y-130024000D01*
X187317349Y-130062192D01*
X187305552Y-130091597D01*
X187285119Y-130121612D01*
X187277884Y-130130703D01*
X187239064Y-130172238D01*
X187199740Y-130205882D01*
X187186967Y-130214604D01*
X187173357Y-130221809D01*
X187156122Y-130227490D01*
X187132157Y-130231867D01*
X187098358Y-130235158D01*
X187051621Y-130237582D01*
X186988841Y-130239359D01*
X186906916Y-130240706D01*
X186802740Y-130241842D01*
X186673209Y-130242987D01*
X186192957Y-130247083D01*
X186192957Y-131098335D01*
X186192957Y-131949587D01*
X186272079Y-131957754D01*
X186322746Y-131965930D01*
X186429508Y-132002546D01*
X186527904Y-132061650D01*
X186613939Y-132139250D01*
X186683614Y-132231354D01*
X186732935Y-132333969D01*
X186757905Y-132443103D01*
X186766017Y-132521693D01*
X187244333Y-132525782D01*
X187368324Y-132526878D01*
X187473297Y-132528012D01*
X187555894Y-132529349D01*
X187619227Y-132531109D01*
X187666407Y-132533513D01*
X187700547Y-132536779D01*
X187724757Y-132541130D01*
X187742150Y-132546783D01*
X187755836Y-132553960D01*
X187768928Y-132562880D01*
X187777268Y-132569162D01*
X187817912Y-132606060D01*
X187854306Y-132647151D01*
X187855639Y-132648905D01*
X187875663Y-132678859D01*
X187887076Y-132708735D01*
X187892212Y-132748031D01*
X187893405Y-132806243D01*
X187893389Y-132811799D01*
X187887882Y-132887701D01*
X187869457Y-132945963D01*
X187833688Y-132995626D01*
X187776149Y-133045730D01*
X187724910Y-133084829D01*
X187244074Y-133088924D01*
X186763238Y-133093018D01*
X186759134Y-133736375D01*
X186755030Y-134379731D01*
X186711177Y-134472265D01*
X186658064Y-134561314D01*
X186579013Y-134649707D01*
X186485019Y-134720611D01*
X186381051Y-134770368D01*
X186272079Y-134795323D01*
X186192957Y-134803489D01*
X186192957Y-135084101D01*
X186192957Y-135364713D01*
X186272079Y-135372880D01*
X186367836Y-135393359D01*
X186472686Y-135440267D01*
X186568173Y-135508770D01*
X186649327Y-135595212D01*
X186711177Y-135695937D01*
X186723936Y-135723390D01*
X186736775Y-135754848D01*
X186745722Y-135785896D01*
X186751639Y-135822309D01*
X186755389Y-135869858D01*
X186757835Y-135934317D01*
X186759841Y-136021460D01*
X186760657Y-136071167D01*
X186761083Y-136150028D01*
X186760406Y-136218496D01*
X186758709Y-136270553D01*
X186756074Y-136300181D01*
X186755264Y-136304007D01*
X186734514Y-136351616D01*
X186697190Y-136403481D01*
X186650778Y-136450622D01*
X186602765Y-136484058D01*
X186586708Y-136491132D01*
X186534294Y-136502658D01*
X186463003Y-136503681D01*
X186416395Y-136499358D01*
X186349627Y-136480459D01*
X186293407Y-136443126D01*
X186239171Y-136382733D01*
X186236960Y-136379827D01*
X186221883Y-136358324D01*
X186211417Y-136336785D01*
X186204552Y-136309526D01*
X186200279Y-136270863D01*
X186197589Y-136215112D01*
X186195472Y-136136589D01*
X186190872Y-135941649D01*
X186112793Y-135933591D01*
X186016489Y-135912801D01*
X185912229Y-135865765D01*
X185817172Y-135797260D01*
X185736335Y-135710985D01*
X185674737Y-135610641D01*
X185630884Y-135518107D01*
X185630884Y-135084101D01*
X185630884Y-134650096D01*
X185674737Y-134557562D01*
X185727851Y-134468513D01*
X185806901Y-134380120D01*
X185900895Y-134309216D01*
X186004863Y-134259459D01*
X186113835Y-134234504D01*
X186192957Y-134226338D01*
X186192957Y-133944623D01*
X186192957Y-133662908D01*
X185833657Y-133658463D01*
X185474358Y-133654017D01*
X185381824Y-133610164D01*
X185360197Y-133599314D01*
X185257359Y-133529511D01*
X185170737Y-133439296D01*
X185105550Y-133333890D01*
X185085670Y-133289649D01*
X185072768Y-133251820D01*
X185065544Y-133212178D01*
X185062390Y-133161846D01*
X185061697Y-133091944D01*
X185062369Y-133022791D01*
X185065482Y-132972265D01*
X185072643Y-132932543D01*
X185085463Y-132894747D01*
X185105550Y-132849999D01*
X185158663Y-132760950D01*
X185237713Y-132672557D01*
X185331707Y-132601653D01*
X185435675Y-132551896D01*
X185544648Y-132526941D01*
X185623769Y-132518775D01*
X185623769Y-131668975D01*
X185623769Y-130819175D01*
X185544648Y-130811009D01*
X185448891Y-130790530D01*
X185344040Y-130743622D01*
X185248553Y-130675119D01*
X185167400Y-130588676D01*
X185105550Y-130487951D01*
X185085670Y-130443710D01*
X185072768Y-130405881D01*
X185065544Y-130366240D01*
X185062390Y-130315907D01*
X185061697Y-130246006D01*
X185062369Y-130176853D01*
X185065482Y-130126327D01*
X185072643Y-130086605D01*
X185085463Y-130048809D01*
X185105550Y-130004060D01*
X185158663Y-129915012D01*
X185237713Y-129826618D01*
X185331707Y-129755715D01*
X185435675Y-129705957D01*
X185544648Y-129681003D01*
X185623769Y-129672837D01*
X185623769Y-129107631D01*
X185623769Y-128542424D01*
X185544648Y-128534258D01*
X185493623Y-128525998D01*
X185387000Y-128489333D01*
X185288702Y-128430231D01*
X185202734Y-128352691D01*
X185133103Y-128260710D01*
X185083814Y-128158287D01*
X185058874Y-128049420D01*
X185050815Y-127971341D01*
X184857040Y-127966741D01*
X184828524Y-127965993D01*
X184745849Y-127962118D01*
X184684166Y-127954608D01*
X184637688Y-127941295D01*
X184600628Y-127920011D01*
X184567197Y-127888589D01*
X184531608Y-127844861D01*
X184529381Y-127841924D01*
X184509809Y-127812344D01*
X184498669Y-127782538D01*
X184493667Y-127743110D01*
X184492509Y-127684661D01*
X184492515Y-127678449D01*
X184493922Y-127622073D01*
X184499377Y-127583882D01*
X184511175Y-127554477D01*
X184531608Y-127524462D01*
X184543051Y-127509673D01*
X184577287Y-127470004D01*
X184611124Y-127441937D01*
X184650331Y-127423315D01*
X184700678Y-127411983D01*
X184767933Y-127405786D01*
X184857866Y-127402568D01*
X185052468Y-127397953D01*
X185057082Y-127202188D01*
X185057380Y-127189639D01*
X185059515Y-127114453D01*
X185062353Y-127061268D01*
X185066897Y-127024417D01*
X185074150Y-126998236D01*
X185085115Y-126977058D01*
X185100796Y-126955217D01*
X185102217Y-126953361D01*
X185152561Y-126896172D01*
X185202766Y-126860866D01*
X185261936Y-126842966D01*
X185339176Y-126837995D01*
X185341535Y-126837998D01*
X185418178Y-126843254D01*
X185476992Y-126861558D01*
X185527083Y-126897387D01*
X185577556Y-126955217D01*
X185580433Y-126959003D01*
X185595253Y-126980293D01*
X185605542Y-127001826D01*
X185612295Y-127029246D01*
X185616507Y-127068194D01*
X185619173Y-127124312D01*
X185621288Y-127203245D01*
X185625920Y-127400068D01*
X185908363Y-127400068D01*
X186190806Y-127400068D01*
X186195439Y-127203245D01*
X186195783Y-127188758D01*
X186197920Y-127113881D01*
X186200768Y-127060909D01*
X186205322Y-127024199D01*
X186212577Y-126998108D01*
X186223529Y-126976995D01*
X186239171Y-126955217D01*
X186240592Y-126953361D01*
X186290937Y-126896172D01*
X186341141Y-126860866D01*
X186400311Y-126842966D01*
X186477551Y-126837995D01*
X186479939Y-126837998D01*
G37*
G36*
X178790848Y-133451244D02*
G01*
X178786402Y-133810544D01*
X178742549Y-133903078D01*
X178731699Y-133924705D01*
X178661896Y-134027543D01*
X178571682Y-134114165D01*
X178466275Y-134179352D01*
X178373741Y-134223205D01*
X177939736Y-134223205D01*
X177505730Y-134223205D01*
X177413196Y-134179352D01*
X177391569Y-134168502D01*
X177288731Y-134098699D01*
X177202109Y-134008484D01*
X177136922Y-133903078D01*
X177093069Y-133810544D01*
X177093069Y-133091944D01*
X177655142Y-133091944D01*
X177655142Y-133376538D01*
X177655142Y-133661132D01*
X177939736Y-133661132D01*
X178224330Y-133661132D01*
X178224330Y-133376538D01*
X178224330Y-133091944D01*
X177939736Y-133091944D01*
X177655142Y-133091944D01*
X177093069Y-133091944D01*
X177093069Y-132969888D01*
X177093069Y-132129232D01*
X177132168Y-132077967D01*
X177133601Y-132076093D01*
X177183914Y-132018889D01*
X177234112Y-131983569D01*
X177293291Y-131965659D01*
X177370548Y-131960684D01*
X177372907Y-131960687D01*
X177449551Y-131965944D01*
X177508365Y-131984247D01*
X177558456Y-132020076D01*
X177608928Y-132077906D01*
X177611805Y-132081692D01*
X177626625Y-132102982D01*
X177636914Y-132124515D01*
X177643667Y-132151935D01*
X177647879Y-132190883D01*
X177650545Y-132247002D01*
X177652660Y-132325934D01*
X177657293Y-132522757D01*
X178509731Y-132522757D01*
X179362168Y-132522757D01*
X179365994Y-131472203D01*
X179369820Y-130421649D01*
X179408919Y-130370394D01*
X179410350Y-130368523D01*
X179460668Y-130311321D01*
X179510867Y-130276004D01*
X179570045Y-130258096D01*
X179647299Y-130253121D01*
X179649658Y-130253124D01*
X179726301Y-130258381D01*
X179785116Y-130276684D01*
X179835206Y-130312513D01*
X179885679Y-130370343D01*
X179888556Y-130374129D01*
X179903376Y-130395419D01*
X179913665Y-130416952D01*
X179920418Y-130444372D01*
X179924630Y-130483320D01*
X179927296Y-130539439D01*
X179929411Y-130618371D01*
X179934044Y-130815194D01*
X180215571Y-130815194D01*
X180497099Y-130815194D01*
X180505265Y-130736072D01*
X180513355Y-130685776D01*
X180549920Y-130578868D01*
X180609027Y-130480370D01*
X180686688Y-130394267D01*
X180778920Y-130324546D01*
X180881734Y-130275191D01*
X180991146Y-130250190D01*
X181070268Y-130242024D01*
X181070268Y-129960309D01*
X181070268Y-129678594D01*
X180710968Y-129674149D01*
X180351669Y-129669703D01*
X180259135Y-129625850D01*
X180237507Y-129615000D01*
X180134670Y-129545197D01*
X180048047Y-129454983D01*
X179982861Y-129349576D01*
X179939007Y-129257042D01*
X179939007Y-128985592D01*
X179939007Y-128714141D01*
X179978107Y-128662858D01*
X179979543Y-128660979D01*
X180029846Y-128603771D01*
X180080042Y-128568447D01*
X180139225Y-128550534D01*
X180216486Y-128545558D01*
X180218846Y-128545561D01*
X180295489Y-128550818D01*
X180354303Y-128569121D01*
X180404394Y-128604950D01*
X180454866Y-128662780D01*
X180457435Y-128666158D01*
X180472374Y-128687546D01*
X180482745Y-128709081D01*
X180489550Y-128736425D01*
X180493790Y-128775240D01*
X180496467Y-128831187D01*
X180498583Y-128909928D01*
X180503201Y-129105871D01*
X180861440Y-129110308D01*
X181219680Y-129114745D01*
X181312214Y-129158599D01*
X181333841Y-129169449D01*
X181436679Y-129239252D01*
X181523301Y-129329466D01*
X181588488Y-129434873D01*
X181632341Y-129527407D01*
X181632341Y-129961412D01*
X181632341Y-130395418D01*
X181588488Y-130487951D01*
X181534373Y-130578291D01*
X181455513Y-130666046D01*
X181361994Y-130736540D01*
X181258870Y-130786043D01*
X181151194Y-130810823D01*
X181073877Y-130818803D01*
X181065897Y-130896120D01*
X181044874Y-130992833D01*
X180997744Y-131096659D01*
X180929239Y-131191401D01*
X180843089Y-131272003D01*
X180743026Y-131333413D01*
X180650492Y-131377266D01*
X180291192Y-131381712D01*
X179931893Y-131386157D01*
X179931893Y-131668975D01*
X179931893Y-131951793D01*
X180291192Y-131956238D01*
X180650492Y-131960684D01*
X180743026Y-132004537D01*
X180832693Y-132058129D01*
X180920779Y-132137088D01*
X180991487Y-132230854D01*
X181041123Y-132334416D01*
X181065993Y-132442762D01*
X181074069Y-132521010D01*
X181431468Y-132525441D01*
X181788867Y-132529871D01*
X181881401Y-132573725D01*
X181903029Y-132584575D01*
X182005866Y-132654378D01*
X182092489Y-132744592D01*
X182157675Y-132849999D01*
X182201529Y-132942533D01*
X182205631Y-133585360D01*
X182207931Y-133945726D01*
X182209734Y-134228188D01*
X182406012Y-134232811D01*
X182419500Y-134233132D01*
X182494536Y-134235267D01*
X182547617Y-134238110D01*
X182584400Y-134242659D01*
X182610537Y-134249913D01*
X182631683Y-134260872D01*
X182653494Y-134276534D01*
X182655350Y-134277955D01*
X182712539Y-134328299D01*
X182747845Y-134378504D01*
X182765745Y-134437673D01*
X182770716Y-134514914D01*
X182770713Y-134517273D01*
X182765456Y-134593916D01*
X182747153Y-134652730D01*
X182711324Y-134702821D01*
X182653494Y-134753293D01*
X182650587Y-134755505D01*
X182629084Y-134770581D01*
X182607545Y-134781047D01*
X182580286Y-134787912D01*
X182541623Y-134792185D01*
X182485872Y-134794876D01*
X182407349Y-134796993D01*
X182212410Y-134801593D01*
X182204351Y-134879672D01*
X182196097Y-134930536D01*
X182159409Y-135036822D01*
X182100249Y-135134888D01*
X182022646Y-135220707D01*
X181930626Y-135290253D01*
X181828219Y-135339500D01*
X181719451Y-135364420D01*
X181641202Y-135372496D01*
X181636772Y-135729895D01*
X181632341Y-136087294D01*
X181588488Y-136179828D01*
X181562997Y-136222477D01*
X181534895Y-136269495D01*
X181455937Y-136357582D01*
X181362171Y-136428289D01*
X181258609Y-136477925D01*
X181150263Y-136502796D01*
X181072015Y-136510872D01*
X181067584Y-136868271D01*
X181063153Y-137225670D01*
X181019300Y-137318204D01*
X180969091Y-137404613D01*
X180885871Y-137499198D01*
X180783675Y-137573496D01*
X180664722Y-137625583D01*
X180662393Y-137626243D01*
X180645711Y-137629034D01*
X180617978Y-137631510D01*
X180577856Y-137633683D01*
X180524005Y-137635565D01*
X180455086Y-137637168D01*
X180369761Y-137638505D01*
X180266689Y-137639587D01*
X180144533Y-137640425D01*
X180001952Y-137641033D01*
X179837607Y-137641422D01*
X179650161Y-137641604D01*
X179438272Y-137641590D01*
X179200603Y-137641394D01*
X178935814Y-137641026D01*
X177263825Y-137638331D01*
X177217546Y-137605322D01*
X177209206Y-137599040D01*
X177168562Y-137562143D01*
X177132168Y-137521051D01*
X177129942Y-137518114D01*
X177110370Y-137488535D01*
X177099229Y-137458729D01*
X177094227Y-137419300D01*
X177093069Y-137360852D01*
X177093076Y-137354640D01*
X177094482Y-137298264D01*
X177099938Y-137260072D01*
X177111735Y-137230667D01*
X177132168Y-137200652D01*
X177139403Y-137191561D01*
X177178223Y-137150026D01*
X177217546Y-137116382D01*
X177230320Y-137107660D01*
X177243929Y-137100455D01*
X177261165Y-137094774D01*
X177285130Y-137090397D01*
X177318929Y-137087106D01*
X177365666Y-137084682D01*
X177428445Y-137082905D01*
X177510371Y-137081558D01*
X177614547Y-137080422D01*
X177744078Y-137079277D01*
X178224330Y-137075181D01*
X178224330Y-136793116D01*
X178224330Y-136511052D01*
X178145208Y-136502886D01*
X178093646Y-136494499D01*
X177987231Y-136457760D01*
X177889080Y-136398662D01*
X177803213Y-136321211D01*
X177733649Y-136229414D01*
X177684409Y-136127278D01*
X177659513Y-136018809D01*
X177651533Y-135941492D01*
X177616566Y-135937883D01*
X178793517Y-135937883D01*
X178793517Y-136507070D01*
X178793517Y-137076258D01*
X179078111Y-137076258D01*
X179362705Y-137076258D01*
X179931893Y-137076258D01*
X180216486Y-137076258D01*
X180501080Y-137076258D01*
X180501080Y-136222477D01*
X180501080Y-135368695D01*
X180216486Y-135368695D01*
X179931893Y-135368695D01*
X179931893Y-136222477D01*
X179931893Y-136507070D01*
X179931893Y-137076258D01*
X179362705Y-137076258D01*
X179362705Y-136507070D01*
X179362705Y-135937883D01*
X179078111Y-135937883D01*
X178793517Y-135937883D01*
X177616566Y-135937883D01*
X177574216Y-135933512D01*
X177477502Y-135912489D01*
X177373676Y-135865359D01*
X177278935Y-135796853D01*
X177198332Y-135710703D01*
X177136922Y-135610641D01*
X177093069Y-135518107D01*
X177093069Y-135247743D01*
X177093074Y-135223787D01*
X177093322Y-135135261D01*
X177094286Y-135069724D01*
X177096430Y-135022726D01*
X177100217Y-134989815D01*
X177106111Y-134966541D01*
X177114577Y-134948453D01*
X177126078Y-134931099D01*
X177132360Y-134922759D01*
X177169257Y-134882115D01*
X177210349Y-134845721D01*
X177212102Y-134844388D01*
X177242057Y-134824364D01*
X177271933Y-134812952D01*
X177311228Y-134807816D01*
X177369440Y-134806622D01*
X177374984Y-134806638D01*
X177450880Y-134812142D01*
X177509138Y-134830559D01*
X177558805Y-134866317D01*
X177608928Y-134923845D01*
X177611805Y-134927631D01*
X177626625Y-134948921D01*
X177636914Y-134970454D01*
X177643667Y-134997873D01*
X177647879Y-135036821D01*
X177650545Y-135092940D01*
X177652660Y-135171872D01*
X177657293Y-135368695D01*
X178223414Y-135368695D01*
X178789536Y-135368695D01*
X178797702Y-135289573D01*
X178805792Y-135239277D01*
X178842357Y-135132370D01*
X178901464Y-135033872D01*
X178979125Y-134947769D01*
X179071357Y-134878047D01*
X179174171Y-134828693D01*
X179283583Y-134803692D01*
X179362705Y-134795526D01*
X179362705Y-133943735D01*
X179362705Y-133091944D01*
X179931893Y-133091944D01*
X179931893Y-133945726D01*
X179931893Y-134799507D01*
X180785674Y-134799507D01*
X181639456Y-134799507D01*
X181639456Y-133945726D01*
X181639456Y-133091944D01*
X180785674Y-133091944D01*
X179931893Y-133091944D01*
X179362705Y-133091944D01*
X179078999Y-133091944D01*
X178795293Y-133091944D01*
X178791772Y-133376538D01*
X178790848Y-133451244D01*
G37*
G36*
X111456134Y-129389502D02*
G01*
X111479371Y-129813593D01*
X111424509Y-129889055D01*
X110958029Y-130146619D01*
X110673248Y-130068380D01*
X110404060Y-129667850D01*
X110594447Y-129255860D01*
X111026052Y-129162934D01*
X111456134Y-129389502D01*
G37*
G36*
X111740076Y-127686178D02*
G01*
X112031268Y-128000141D01*
X112021633Y-128085019D01*
X111694635Y-128357887D01*
X111594266Y-128344241D01*
X111136902Y-128000141D01*
X111103247Y-127815827D01*
X111473535Y-127642394D01*
X111740076Y-127686178D01*
G37*
G36*
X135463663Y-127284648D02*
G01*
X135755525Y-127577711D01*
X136000282Y-128043945D01*
X135865751Y-128333772D01*
X135492089Y-128259002D01*
X135144191Y-127792008D01*
X134968198Y-127266053D01*
X135020104Y-127002117D01*
X135463663Y-127284648D01*
G37*
G36*
X149049198Y-131036939D02*
G01*
X149705382Y-133529582D01*
X150143168Y-135771333D01*
X150307439Y-137569859D01*
X150174019Y-137830492D01*
X149594649Y-138017042D01*
X149483744Y-138013894D01*
X149097301Y-137863588D01*
X148919701Y-137357827D01*
X148875218Y-136317746D01*
X148867582Y-135602837D01*
X148765055Y-133902324D01*
X148517883Y-132772485D01*
X148093687Y-132110244D01*
X147460091Y-131812525D01*
X146762714Y-131741316D01*
X145029762Y-131844327D01*
X142659345Y-132236766D01*
X139661415Y-132916829D01*
X136045927Y-133882710D01*
X133415216Y-134609856D01*
X131043786Y-135215427D01*
X129007683Y-135662041D01*
X127127914Y-135984509D01*
X125225487Y-136217642D01*
X123121409Y-136396249D01*
X121123402Y-136437243D01*
X118596413Y-136149637D01*
X116071917Y-135438304D01*
X113445979Y-134263153D01*
X110899238Y-132752861D01*
X116157337Y-132752861D01*
X116194116Y-133021580D01*
X116237212Y-133059403D01*
X116886541Y-133363329D01*
X117842609Y-133599667D01*
X119120367Y-133807018D01*
X119165105Y-133389264D01*
X120094710Y-133389264D01*
X120306345Y-133959478D01*
X120349787Y-134009696D01*
X121082086Y-134411408D01*
X121867513Y-134227259D01*
X122548901Y-133545976D01*
X122969082Y-132456284D01*
X123043843Y-131429252D01*
X122805721Y-130236596D01*
X122254719Y-129393225D01*
X121468148Y-129073380D01*
X121202303Y-129095948D01*
X120940022Y-129253016D01*
X120685689Y-129405324D01*
X120719208Y-129876440D01*
X121332677Y-130250276D01*
X121744618Y-130504316D01*
X122037505Y-131195087D01*
X121988466Y-132022656D01*
X121630419Y-132717124D01*
X120996280Y-133008591D01*
X120522388Y-133058989D01*
X120094710Y-133389264D01*
X119165105Y-133389264D01*
X119375568Y-131423987D01*
X119470225Y-130207333D01*
X119476126Y-129253016D01*
X119415164Y-128935380D01*
X125631459Y-128935380D01*
X125747372Y-129501701D01*
X126188101Y-130175179D01*
X126432491Y-130503510D01*
X126573043Y-131145675D01*
X126517953Y-131429252D01*
X126380386Y-132137381D01*
X126317628Y-132380210D01*
X126164164Y-133268550D01*
X126196780Y-133779948D01*
X126311217Y-133919087D01*
X126761211Y-133971462D01*
X127238025Y-133536455D01*
X127617103Y-132768649D01*
X127773890Y-131822626D01*
X127797816Y-131753647D01*
X128099531Y-131896127D01*
X128636190Y-132471972D01*
X128750607Y-132611262D01*
X129399362Y-133220859D01*
X129750927Y-133209607D01*
X129773086Y-132617413D01*
X129433621Y-131484184D01*
X129304005Y-131117922D01*
X128976527Y-129881068D01*
X128845353Y-128852734D01*
X128777420Y-128019885D01*
X128653542Y-127654721D01*
X129605036Y-127654721D01*
X129712799Y-127961122D01*
X130350709Y-127933191D01*
X130945321Y-128038278D01*
X131550757Y-128614687D01*
X131942073Y-129485141D01*
X132065214Y-130433229D01*
X131866123Y-131242535D01*
X131290746Y-131696647D01*
X131090459Y-131753644D01*
X130732240Y-132002604D01*
X130976804Y-132453864D01*
X131140964Y-132617413D01*
X131287577Y-132763481D01*
X131751129Y-133008591D01*
X132097684Y-132900814D01*
X132740851Y-132327621D01*
X133273829Y-131495068D01*
X133496057Y-130671749D01*
X133494934Y-130603951D01*
X133322068Y-129594671D01*
X132933493Y-128445896D01*
X132766702Y-128103972D01*
X134408432Y-128103972D01*
X134410185Y-128299067D01*
X134481684Y-129864462D01*
X134631714Y-130671749D01*
X134667908Y-130866504D01*
X134992158Y-131438294D01*
X135137557Y-131567856D01*
X135653014Y-131721459D01*
X135917684Y-131323964D01*
X135820393Y-130501165D01*
X135790839Y-129941306D01*
X136295646Y-129788873D01*
X136716291Y-129878243D01*
X137202892Y-130325493D01*
X137521112Y-130756686D01*
X137942669Y-130811670D01*
X138146761Y-130372642D01*
X138142625Y-130326488D01*
X137930279Y-129715894D01*
X137460244Y-128709036D01*
X136821356Y-127498553D01*
X136348244Y-126681056D01*
X135587579Y-125589650D01*
X135303355Y-125380516D01*
X138081058Y-125380516D01*
X138270275Y-126672776D01*
X138796181Y-128486255D01*
X138995477Y-129034034D01*
X139522212Y-130067727D01*
X139906036Y-130372642D01*
X140018399Y-130461905D01*
X140450274Y-130181956D01*
X140541873Y-129760501D01*
X140456445Y-128959446D01*
X140453977Y-128201876D01*
X140856301Y-127806323D01*
X141497547Y-127895684D01*
X142191535Y-128517395D01*
X142482024Y-128859906D01*
X143124642Y-129331651D01*
X143651971Y-129417151D01*
X143870705Y-129054565D01*
X143870490Y-129043189D01*
X143788197Y-128496527D01*
X143585910Y-127475814D01*
X143305410Y-126192593D01*
X143017316Y-125073835D01*
X142613874Y-124046224D01*
X142220943Y-123707183D01*
X142041781Y-123729332D01*
X141530796Y-124199961D01*
X141224312Y-125317714D01*
X141152307Y-125640120D01*
X140738122Y-126202370D01*
X140138333Y-126141128D01*
X139495010Y-125445867D01*
X139410787Y-125314044D01*
X138859957Y-124694496D01*
X138404369Y-124523392D01*
X138232778Y-124652457D01*
X138081058Y-125380516D01*
X135303355Y-125380516D01*
X135032696Y-125181363D01*
X134664165Y-125461071D01*
X134462554Y-126433649D01*
X134408432Y-128103972D01*
X132766702Y-128103972D01*
X132442344Y-127439031D01*
X131961758Y-126855480D01*
X131953118Y-126850031D01*
X131110739Y-126586729D01*
X130278309Y-126695477D01*
X129777994Y-127135034D01*
X129605036Y-127654721D01*
X128653542Y-127654721D01*
X128609959Y-127526249D01*
X128430848Y-127429512D01*
X127976874Y-127622034D01*
X127898927Y-127738576D01*
X127582678Y-128211411D01*
X127476508Y-128704911D01*
X127414367Y-128993757D01*
X127399647Y-129476157D01*
X127240163Y-129679956D01*
X126760141Y-129307700D01*
X126287565Y-128930240D01*
X125865775Y-128715634D01*
X125631459Y-128935380D01*
X119415164Y-128935380D01*
X119389032Y-128799219D01*
X119237172Y-128725653D01*
X118887199Y-128987970D01*
X118598931Y-129667854D01*
X118476183Y-130564543D01*
X118472345Y-130791471D01*
X118304362Y-131908561D01*
X117821379Y-132486300D01*
X116929895Y-132650845D01*
X116784194Y-132652387D01*
X116157337Y-132752861D01*
X110899238Y-132752861D01*
X110614660Y-132584098D01*
X107474025Y-130361049D01*
X107281014Y-130215623D01*
X106243394Y-129427769D01*
X109611626Y-129427769D01*
X109641617Y-129973450D01*
X110201152Y-130542792D01*
X110981037Y-131063956D01*
X111617872Y-131115435D01*
X112078558Y-130594760D01*
X113192575Y-130594760D01*
X113288344Y-131593244D01*
X113621531Y-132069887D01*
X114516199Y-132293098D01*
X115108970Y-132195253D01*
X115667479Y-131744212D01*
X116118182Y-130817050D01*
X116541269Y-129295048D01*
X116625923Y-128704911D01*
X116499117Y-128358986D01*
X116186886Y-128503905D01*
X115798889Y-129070290D01*
X115444787Y-129988762D01*
X115289917Y-130473903D01*
X114939625Y-131119854D01*
X114651505Y-131107859D01*
X114479728Y-130478157D01*
X114478468Y-129270987D01*
X114507739Y-128802119D01*
X114510726Y-128016314D01*
X114377047Y-127770738D01*
X114068708Y-127942184D01*
X113734608Y-128390055D01*
X113364907Y-129416716D01*
X113192575Y-130594760D01*
X112078558Y-130594760D01*
X112110225Y-130558970D01*
X112561179Y-129342119D01*
X112811856Y-128460175D01*
X112941126Y-127738576D01*
X112835447Y-127323658D01*
X112488197Y-127003265D01*
X112349266Y-126910366D01*
X111469867Y-126641554D01*
X110709914Y-126843448D01*
X110317186Y-127463521D01*
X110158963Y-128083558D01*
X109785331Y-129022369D01*
X109611626Y-129427769D01*
X106243394Y-129427769D01*
X105546393Y-128898544D01*
X104344980Y-127943975D01*
X103638928Y-127293640D01*
X103390390Y-126889266D01*
X103561522Y-126672576D01*
X104114477Y-126585298D01*
X105011408Y-126569155D01*
X105826895Y-126539943D01*
X106694818Y-126407457D01*
X107022818Y-126197156D01*
X106993697Y-126036954D01*
X106730492Y-125328521D01*
X106282368Y-124373756D01*
X106066822Y-123931068D01*
X105748126Y-123150508D01*
X105689044Y-122775228D01*
X105741368Y-122766894D01*
X106276761Y-122919001D01*
X107245939Y-123297665D01*
X108486536Y-123841026D01*
X108829369Y-123995795D01*
X112910185Y-125495678D01*
X116875985Y-126299417D01*
X120767062Y-126408436D01*
X124623712Y-125824160D01*
X128486226Y-124548012D01*
X129952230Y-123949557D01*
X133444693Y-122670181D01*
X136470392Y-121805509D01*
X139102750Y-121340877D01*
X141415192Y-121261619D01*
X143481140Y-121553071D01*
X144066959Y-121699682D01*
X144835211Y-121974565D01*
X145383089Y-122402425D01*
X145887545Y-123147142D01*
X146525529Y-124372597D01*
X147302102Y-126068302D01*
X148229733Y-128485735D01*
X148412445Y-129054565D01*
X149049198Y-131036939D01*
G37*
%TD*%
%LPC*%
D13*
%TO.C,AE1*%
X145890000Y-133350000D03*
%TD*%
%LPD*%
M02*
