%TF.GenerationSoftware,KiCad,Pcbnew,10.0.3*%
%TF.CreationDate,2026-07-02T18:43:42+08:00*%
%TF.ProjectId,FalloutPCBs,46616c6c-6f75-4745-9043-42732e6b6963,rev?*%
%TF.SameCoordinates,Original*%
%TF.FileFunction,Copper,L1,Top*%
%TF.FilePolarity,Positive*%
%FSLAX46Y46*%
G04 Gerber Fmt 4.6, Leading zero omitted, Abs format (unit mm)*
G04 Created by KiCad (PCBNEW 10.0.3) date 2026-07-02 18:43:42*
%MOMM*%
%LPD*%
G01*
G04 APERTURE LIST*
G04 Aperture macros list*
%AMRoundRect*
0 Rectangle with rounded corners*
0 $1 Rounding radius*
0 $2 $3 $4 $5 $6 $7 $8 $9 X,Y pos of 4 corners*
0 Add a 4 corners polygon primitive as box body*
4,1,4,$2,$3,$4,$5,$6,$7,$8,$9,$2,$3,0*
0 Add four circle primitives for the rounded corners*
1,1,$1+$1,$2,$3*
1,1,$1+$1,$4,$5*
1,1,$1+$1,$6,$7*
1,1,$1+$1,$8,$9*
0 Add four rect primitives between the rounded corners*
20,1,$1+$1,$2,$3,$4,$5,0*
20,1,$1+$1,$4,$5,$6,$7,0*
20,1,$1+$1,$6,$7,$8,$9,0*
20,1,$1+$1,$8,$9,$2,$3,0*%
G04 Aperture macros list end*
%TA.AperFunction,EtchedComponent*%
%ADD10C,0.300000*%
%TD*%
%TA.AperFunction,SMDPad,CuDef*%
%ADD11R,0.400000X0.280000*%
%TD*%
%TA.AperFunction,SMDPad,CuDef*%
%ADD12R,0.400000X0.220000*%
%TD*%
%TA.AperFunction,SMDPad,CuDef*%
%ADD13R,0.220000X0.400000*%
%TD*%
%TA.AperFunction,SMDPad,CuDef*%
%ADD14RoundRect,0.243750X-0.243750X-0.456250X0.243750X-0.456250X0.243750X0.456250X-0.243750X0.456250X0*%
%TD*%
%TA.AperFunction,SMDPad,CuDef*%
%ADD15R,0.300000X0.940000*%
%TD*%
%TA.AperFunction,ComponentPad*%
%ADD16C,0.808000*%
%TD*%
%TA.AperFunction,SMDPad,CuDef*%
%ADD17RoundRect,0.100000X-0.130000X-0.100000X0.130000X-0.100000X0.130000X0.100000X-0.130000X0.100000X0*%
%TD*%
%TA.AperFunction,SMDPad,CuDef*%
%ADD18RoundRect,0.100000X0.130000X0.100000X-0.130000X0.100000X-0.130000X-0.100000X0.130000X-0.100000X0*%
%TD*%
%TA.AperFunction,ViaPad*%
%ADD19C,0.600000*%
%TD*%
%TA.AperFunction,Conductor*%
%ADD20C,0.200000*%
%TD*%
G04 APERTURE END LIST*
%TO.C,AE1*%
D10*
X122525000Y-133625000D02*
X122525000Y-114025000D01*
X123125000Y-133625000D02*
X123125000Y-114025000D01*
X123725000Y-133625000D02*
X123725000Y-114025000D01*
X124325000Y-133625000D02*
X124325000Y-114025000D01*
X124925000Y-133625000D02*
X124925000Y-114025000D01*
X125225000Y-133925000D02*
X145725000Y-133925000D01*
X125225000Y-134525000D02*
X145925000Y-134525000D01*
X145890000Y-133350000D02*
X145890000Y-133760000D01*
X145890000Y-133760000D02*
X145725000Y-133925000D01*
X146125000Y-135125000D02*
X125225000Y-135125000D01*
X146325000Y-135725000D02*
X125225000Y-135725000D01*
X146525000Y-133925000D02*
X145925000Y-134525000D01*
X146525000Y-136325000D02*
X125225000Y-136325000D01*
X146725000Y-134525000D02*
X146125000Y-135125000D01*
X146925000Y-135125000D02*
X146325000Y-135725000D01*
X147125000Y-135725000D02*
X146525000Y-136325000D01*
X147160000Y-136490000D02*
X147325000Y-136325000D01*
X147160000Y-136785000D02*
X147160000Y-136490000D01*
X147325000Y-136325000D02*
X167825000Y-136325000D01*
X167825000Y-111325000D02*
X125225000Y-111325000D01*
X167825000Y-111925000D02*
X125225000Y-111925000D01*
X167825000Y-112525000D02*
X125225000Y-112525000D01*
X167825000Y-113125000D02*
X125225000Y-113125000D01*
X167825000Y-113725000D02*
X125225000Y-113725000D01*
X167825000Y-133925000D02*
X146525000Y-133925000D01*
X167825000Y-134525000D02*
X146725000Y-134525000D01*
X167825000Y-135125000D02*
X146925000Y-135125000D01*
X167825000Y-135725000D02*
X147125000Y-135725000D01*
X168125000Y-133625000D02*
X168125000Y-114025000D01*
X168725000Y-133625000D02*
X168725000Y-114025000D01*
X169325000Y-133625000D02*
X169325000Y-114025000D01*
X169925000Y-133625000D02*
X169925000Y-114025000D01*
X170525000Y-133625000D02*
X170525000Y-114025000D01*
X122525000Y-114025000D02*
G75*
G02*
X125225000Y-111325000I2700000J0D01*
G01*
X123125000Y-114025000D02*
G75*
G02*
X125224746Y-111925000I2100000J0D01*
G01*
X123725000Y-114025000D02*
G75*
G02*
X125225254Y-112525000I1500000J0D01*
G01*
X124325000Y-114025000D02*
G75*
G02*
X125225000Y-113125000I900000J0D01*
G01*
X124925000Y-114025000D02*
G75*
G02*
X125225000Y-113725000I300000J0D01*
G01*
X125224746Y-135725000D02*
G75*
G02*
X123125000Y-133625000I254J2100000D01*
G01*
X125225000Y-133925000D02*
G75*
G02*
X124925000Y-133625000I0J300000D01*
G01*
X125225000Y-134525000D02*
G75*
G02*
X124325000Y-133625000I0J900000D01*
G01*
X125225000Y-136325000D02*
G75*
G02*
X122525000Y-133625000I0J2700000D01*
G01*
X125225254Y-135125000D02*
G75*
G02*
X123725000Y-133625000I-254J1500000D01*
G01*
X167824746Y-112525000D02*
G75*
G02*
X169325000Y-114025000I253J-1500001D01*
G01*
X167825000Y-111325000D02*
G75*
G02*
X170525000Y-114025000I-1J-2700001D01*
G01*
X167825000Y-113125000D02*
G75*
G02*
X168725000Y-114025000I0J-900000D01*
G01*
X167825000Y-113725000D02*
G75*
G02*
X168125000Y-114025000I0J-300000D01*
G01*
X167825254Y-111925000D02*
G75*
G02*
X169925000Y-114025000I-255J-2100001D01*
G01*
X168125000Y-133625000D02*
G75*
G02*
X167825000Y-133925000I-300000J0D01*
G01*
X168725000Y-133625000D02*
G75*
G02*
X167825000Y-134525000I-900000J0D01*
G01*
X169325000Y-133625000D02*
G75*
G02*
X167824746Y-135125000I-1500001J1D01*
G01*
X169925000Y-133625000D02*
G75*
G02*
X167825254Y-135725000I-2100001J1D01*
G01*
X170525000Y-133625000D02*
G75*
G02*
X167825000Y-136325000I-2700001J1D01*
G01*
%TD*%
D11*
%TO.P,U1,1,LA_1*%
%TO.N,/LA*%
X117510000Y-137330000D03*
D12*
%TO.P,U1,2,VSS_2*%
%TO.N,/VSS*%
X117510000Y-137830000D03*
%TO.P,U1,3,SCL_3*%
%TO.N,unconnected-(U1-SCL-Pad3)*%
X117510000Y-138330000D03*
D13*
%TO.P,U1,4,FD_4*%
%TO.N,unconnected-(U1-FD-Pad4)*%
X118110000Y-138430000D03*
D12*
%TO.P,U1,5,SDA_5*%
%TO.N,unconnected-(U1-SDA-Pad5)*%
X118710000Y-138330000D03*
%TO.P,U1,6,VCC_6*%
%TO.N,/VOUT*%
X118710000Y-137830000D03*
%TO.P,U1,7,VOUT_7*%
X118710000Y-137330000D03*
D13*
%TO.P,U1,8,LB_8*%
%TO.N,/LB*%
X118110000Y-137230000D03*
%TD*%
D14*
%TO.P,D1,1,K_1*%
%TO.N,/VSS*%
X107345000Y-135661400D03*
%TO.P,D1,2,A_2*%
%TO.N,Net-(D1-A)*%
X109220000Y-135661400D03*
%TD*%
D15*
%TO.P,AE1,1*%
%TO.N,/LA*%
X147160000Y-137255000D03*
D16*
%TO.P,AE1,2*%
%TO.N,/LB*%
X145890000Y-133350000D03*
%TD*%
D17*
%TO.P,R1,1*%
%TO.N,Net-(D1-A)*%
X113660400Y-138684000D03*
%TO.P,R1,2*%
%TO.N,/VOUT*%
X114300400Y-138684000D03*
%TD*%
D18*
%TO.P,C1,1*%
%TO.N,/VSS*%
X114340600Y-136169400D03*
%TO.P,C1,2*%
%TO.N,/VOUT*%
X113700600Y-136169400D03*
%TD*%
D19*
%TO.N,/LA*%
X116306600Y-137083800D03*
X141554200Y-140030200D03*
%TO.N,/LB*%
X119684800Y-136525000D03*
%TD*%
%TO.N,/LA*%
D20*
X116552800Y-137330000D02*
X116306600Y-137083800D01*
X147160000Y-137955000D02*
X145453100Y-139661900D01*
X147160000Y-137255000D02*
X147160000Y-137955000D01*
X145453100Y-139661900D02*
X141922500Y-139661900D01*
X141554200Y-140030200D02*
X141922500Y-139661900D01*
X117510000Y-137330000D02*
X116552800Y-137330000D01*
%TO.N,/VSS*%
X114340600Y-136169400D02*
X114340600Y-135969401D01*
X117510000Y-137830000D02*
X116001200Y-137830000D01*
X116001200Y-137830000D02*
X114340600Y-136169400D01*
X112502399Y-134131200D02*
X108875200Y-134131200D01*
X108875200Y-134131200D02*
X107345000Y-135661400D01*
X114340600Y-135969401D02*
X112502399Y-134131200D01*
%TO.N,/VOUT*%
X119210000Y-137920000D02*
X119210000Y-138740000D01*
X118710000Y-137830000D02*
X118710000Y-137330000D01*
X118710000Y-137830000D02*
X119120000Y-137830000D01*
X114300400Y-136927656D02*
X113700600Y-136327856D01*
X119120000Y-137830000D02*
X119210000Y-137920000D01*
X118707200Y-139242800D02*
X116858486Y-139242800D01*
X113700600Y-136327856D02*
X113700600Y-136169400D01*
X116858486Y-139242800D02*
X116299686Y-138684000D01*
X114300400Y-138684000D02*
X114300400Y-136927656D01*
X116299686Y-138684000D02*
X114300400Y-138684000D01*
X119210000Y-138740000D02*
X118707200Y-139242800D01*
%TO.N,/LB*%
X118110000Y-137140000D02*
X118110000Y-137230000D01*
X118725000Y-136525000D02*
X118110000Y-137140000D01*
X119684800Y-136525000D02*
X118725000Y-136525000D01*
%TO.N,Net-(D1-A)*%
X111241000Y-137682400D02*
X109220000Y-135661400D01*
X112234000Y-138684000D02*
X111241000Y-137691000D01*
X111241000Y-137691000D02*
X111241000Y-137682400D01*
X113660400Y-138684000D02*
X112234000Y-138684000D01*
%TD*%
M02*
